<svg width="142" height="35" viewBox="0 0 142 35" fill="none" xmlns="http://www.w3.org/2000/svg">
<path d="M27.8929 28.5106C25.1475 30.9595 21.6504 32.3966 17.9794 32.5844C14.3085 32.7722 10.6835 31.6994 7.70349 29.5433C4.72348 27.3873 2.56684 24.2769 1.59002 20.7264C0.613207 17.1759 0.874692 13.3978 2.33121 10.0163C3.78772 6.63487 6.35211 3.85248 9.60058 2.12911C12.8491 0.405743 16.5872 -0.155451 20.1971 0.538174C23.807 1.2318 27.0727 3.13876 29.4545 5.94392C31.8363 8.74909 33.1916 12.2845 33.2963 15.9659L17.1562 16.4271L27.8929 28.5106Z" fill="#FFD796"/>
<path d="M21.754 30.5724H17.3364V33.5006H21.754V30.5724Z" fill="#FFD796"/>
<path d="M22.8268 29.9665H18.4092V32.8947H22.8268V29.9665Z" fill="#FFD796"/>
<path d="M27.8756 27.846H23.4579V30.5471H27.8756V27.846Z" fill="#FFD796"/>
<path d="M25.8813 29.1965H20.4792V31.8976H25.8813V29.1965Z" fill="#FFD796"/>
<path d="M27.7619 28.0477C27.4459 30.7227 25.2509 30.3668 22.6829 31.985C21.8979 32.781 20.4957 32.7725 19.5517 32.6589C15.8145 32.6556 9.33362 32.2072 7.06795 28.0296L5.77144 26.7817L4.21417 25.0763C2.34616 21.9209 2.24269 20.7696 2.24269 20.7696C1.8541 15.0678 1.41185 12.2999 5.87514 8.09162C6.24992 7.73843 8.11156 5.68564 8.53055 5.37442C13.3885 1.76651 18.0963 0.322398 23.7128 3.78644C26.136 4.19749 31.5645 10.227 31.8163 15.3575C32.4384 17.1214 32.5013 16.4035 34.0978 17.2149C34.5372 16.1722 33.9726 14.2881 33.7666 13.2008C32.9622 8.953 29.621 3.50198 25.3174 1.97961C22.3235 0.920519 19.3609 -0.129307 16.0977 0.0130047C10.7733 0.244865 5.70999 3.23104 2.85699 7.69441C2.22798 8.67846 1.96147 9.72974 1.51278 10.7918C1.11987 11.7221 0.536461 12.7889 0.336638 13.7748C-1.01666 20.4513 1.7731 27.8308 7.57354 31.5703C10.987 33.7709 15.2272 34.6075 19.2274 34.1514C21.9811 33.8375 24.5134 32.8543 26.419 31.6314C27.8852 30.6906 29.3085 29.6836 29.3431 28.9322" fill="#4C2121"/>
<path d="M16.8515 0.325485H16.7287V33.8553H16.8515V0.325485Z" fill="#4C2121" stroke="#4C2121" stroke-width="0.4617"/>
<path d="M0.57135 16.1064V16.2293L33.9798 16.2293V16.1064L0.57135 16.1064Z" fill="#4C2121" stroke="#4C2121" stroke-width="0.461264"/>
<path d="M6.15532 4.65008L6.06439 4.7332L28.6565 29.2432L28.7475 29.16L6.15532 4.65008Z" fill="#4C2121" stroke="#4C2121" stroke-width="0.461272"/>
<path d="M27.7876 4.13088L27.8786 4.214L5.28643 28.724L5.1955 28.6408L27.7876 4.13088Z" fill="#4C2121" stroke="#4C2121" stroke-width="0.461272"/>
<path d="M24.061 9.53823L25.8095 8.46354L27.3167 7.58457L27.377 9.62995L27.3878 11.3693L25.579 10.3987L24.061 9.53823Z" fill="#C3642E"/>
<path d="M18.2984 7.95931L20.0469 6.88462L21.5541 6.00565L21.6144 8.05103L21.6252 9.79043L19.8164 8.81974L18.2984 7.95931Z" fill="#C3642E"/>
<path d="M12.9669 5.38928L13.9147 4.06746L14.7462 2.9627L15.4179 4.43867L15.9596 5.70628L14.34 5.55212L12.9669 5.38928Z" fill="#C3642E"/>
<path d="M6.58684 8.98307L7.46358 8.34691L8.22124 7.82348L8.33557 8.89741L8.41148 9.81231L7.4204 9.37455L6.58684 8.98307Z" fill="#C3642E"/>
<path d="M3.23918 21.0546L5.65821 20.6725L7.72166 20.3953L6.85014 22.6762L6.06436 24.5973L4.51685 22.6985L3.23918 21.0546Z" fill="#C3642E"/>
<path d="M10.5092 24.0205L12.9282 23.6384L14.9916 23.3613L14.1201 25.6421L13.3344 27.5632L11.7868 25.6644L10.5092 24.0205Z" fill="#C3642E"/>
<path d="M17.5062 28.4473L19.9253 28.0652L21.9887 27.7881L21.1172 30.069L20.3314 31.9901L18.7839 30.0913L17.5062 28.4473Z" fill="#C3642E"/>
<path d="M25.9632 15.2301C26.9096 15.2301 27.6768 14.4629 27.6768 13.5165C27.6768 12.5701 26.9096 11.8029 25.9632 11.8029C25.0169 11.8029 24.2496 12.5701 24.2496 13.5165C24.2496 14.4629 25.0169 15.2301 25.9632 15.2301Z" fill="#FFBB56"/>
<path d="M19.1049 5.82743C19.7359 5.82743 20.2473 5.31595 20.2473 4.68503C20.2473 4.0541 19.7359 3.54262 19.1049 3.54262C18.474 3.54262 17.9625 4.0541 17.9625 4.68503C17.9625 5.31595 18.474 5.82743 19.1049 5.82743Z" fill="#FFBB56"/>
<path d="M13.75 10.8254C15.0119 10.8254 16.0348 9.80247 16.0348 8.54062C16.0348 7.27877 15.0119 6.25587 13.75 6.25587C12.4882 6.25587 11.4653 7.27877 11.4653 8.54062C11.4653 9.80247 12.4882 10.8254 13.75 10.8254Z" fill="#FFBB56"/>
<path d="M6.25301 15.1807C7.51486 15.1807 8.53783 14.1578 8.53783 12.896C8.53783 11.6341 7.51486 10.6112 6.25301 10.6112C4.99116 10.6112 3.96826 11.6341 3.96826 12.896C3.96826 14.1578 4.99116 15.1807 6.25301 15.1807Z" fill="#FFBB56"/>
<path d="M8.10936 19.6075C8.74028 19.6075 9.25177 19.0961 9.25177 18.4652C9.25177 17.8342 8.74028 17.3228 8.10936 17.3228C7.47843 17.3228 6.96695 17.8342 6.96695 18.4652C6.96695 19.0961 7.47843 19.6075 8.10936 19.6075Z" fill="#FFBB56"/>
<path d="M9.32319 28.104C9.95411 28.104 10.4656 27.5926 10.4656 26.9616C10.4656 26.3307 9.95411 25.8192 9.32319 25.8192C8.69226 25.8192 8.18085 26.3307 8.18085 26.9616C8.18085 27.5926 8.69226 28.104 9.32319 28.104Z" fill="#FFBB56"/>
<path d="M12.8218 31.1743C13.4527 31.1743 13.9642 30.6628 13.9642 30.0319C13.9642 29.401 13.4527 28.8895 12.8218 28.8895C12.1909 28.8895 11.6794 29.401 11.6794 30.0319C11.6794 30.6628 12.1909 31.1743 12.8218 31.1743Z" fill="#FFBB56"/>
<path d="M20.5686 26.8188C21.5742 26.8188 22.3893 26.0037 22.3893 24.9981C22.3893 23.9926 21.5742 23.1775 20.5686 23.1775C19.5631 23.1775 18.748 23.9926 18.748 24.9981C18.748 26.0037 19.5631 26.8188 20.5686 26.8188Z" fill="#FFBB56"/>
<path d="M24.21 29.2823C24.8409 29.2823 25.3524 28.7708 25.3524 28.1399C25.3524 27.5089 24.8409 26.9975 24.21 26.9975C23.579 26.9975 23.0676 27.5089 23.0676 28.1399C23.0676 28.7708 23.579 29.2823 24.21 29.2823Z" fill="#FFBB56"/>
<rect x="8.74484" y="9.71649" width="15.6687" height="13.7087" rx="3.42717" fill="#C3642E"/>
<path d="M15.3143 13.1437C14.955 13.1437 14.6638 13.4336 14.6638 13.7915C14.6638 14.0929 14.8705 14.3458 15.1502 14.4184L14.4849 15.9543C14.7838 16.0084 15.0102 16.2689 15.0102 16.5822C15.0102 16.9348 14.7235 17.2208 14.3696 17.2208C14.0157 17.2208 13.7291 16.9348 13.7291 16.5822C13.7291 16.3316 13.874 16.115 14.0849 16.0105L13.1285 14.5255C13.2792 14.4164 13.3773 14.2398 13.3773 14.0399C13.3773 13.7082 13.1079 13.4389 12.775 13.4389C12.442 13.4389 12.172 13.7083 12.172 14.0399C12.172 14.3716 12.442 14.6403 12.7749 14.6403C12.7887 14.6403 12.8026 14.6401 12.8161 14.6392L13.6049 18.8944H19.553L20.3423 14.6392C20.3559 14.6401 20.3697 14.6404 20.3835 14.6404C20.7164 14.6404 20.9864 14.3716 20.9864 14.0399C20.9864 13.7083 20.7164 13.4389 20.3835 13.4389C20.0506 13.4389 19.7806 13.7083 19.7806 14.0399C19.7806 14.2409 19.8801 14.4183 20.0323 14.5273L19.0788 16.0181C19.2817 16.1254 19.42 16.3376 19.42 16.5823C19.42 16.9348 19.1333 17.2208 18.7795 17.2208C18.4256 17.2208 18.1389 16.9348 18.1389 16.5822C18.1389 16.2615 18.3761 15.9961 18.6853 15.9508L18.0312 14.4224C18.3187 14.3554 18.533 14.0984 18.533 13.7915C18.533 13.4336 18.2417 13.1437 17.8825 13.1437C17.5231 13.1437 17.2319 13.4336 17.2319 13.7915C17.2319 14.0689 17.4071 14.3054 17.653 14.3978L16.8148 15.8219C17.09 15.9066 17.2901 16.1614 17.2901 16.4633C17.2901 16.8344 16.988 17.1352 16.6154 17.1352C16.2429 17.1352 15.9413 16.8344 15.9413 16.4633C15.9413 16.1792 16.1183 15.9365 16.3684 15.8383L15.5378 14.4002C15.7869 14.3093 15.9649 14.0711 15.9649 13.7915C15.9649 13.4336 15.6736 13.1437 15.3143 13.1437L15.3143 13.1437ZM13.6044 19.2446C13.153 19.3152 13.1741 19.9915 13.6832 19.9915H13.8085L13.8097 19.998H19.3489L19.3501 19.9916H19.4936C19.9836 19.9916 20.0184 19.3181 19.5748 19.2447H13.6044L13.6044 19.2446Z" fill="white"/>
<path d="M45.717 19.3558V17.4478H51.045C51.681 17.4478 52.185 17.2798 52.557 16.9438C52.929 16.5958 53.115 16.1158 53.115 15.5038C53.115 14.8678 52.929 14.3818 52.557 14.0458C52.185 13.7098 51.681 13.5418 51.045 13.5418H46.005V23.1358H43.611V11.4898H50.829C51.477 11.4898 52.083 11.5678 52.647 11.7238C53.223 11.8798 53.721 12.1198 54.141 12.4438C54.573 12.7678 54.909 13.1818 55.149 13.6858C55.389 14.1898 55.509 14.7958 55.509 15.5038C55.509 16.1998 55.389 16.7938 55.149 17.2858C54.909 17.7778 54.573 18.1798 54.141 18.4918C53.721 18.7918 53.223 19.0138 52.647 19.1578C52.083 19.2898 51.477 19.3558 50.829 19.3558H45.717ZM60.1382 10.2658V12.3178H57.4202V10.2658H60.1382ZM57.6002 14.1898H59.9402V23.1358H57.6002V14.1898ZM71.2546 15.9718L64.1446 22.0558L63.8926 21.3718H71.3806V23.1358H62.2186V21.3718L69.3286 15.2878L69.5806 15.9718H62.2186V14.1898H71.2546V15.9718ZM82.4519 15.9718L75.3419 22.0558L75.0899 21.3718H82.5779V23.1358H73.4159V21.3718L80.5259 15.2878L80.7779 15.9718H73.4159V14.1898H82.4519V15.9718ZM88.9001 23.3338C88.0121 23.3338 87.2021 23.1418 86.4701 22.7578C85.7501 22.3618 85.1741 21.8158 84.7421 21.1198C84.3221 20.4118 84.1121 19.5958 84.1121 18.6718C84.1121 17.7238 84.3281 16.9018 84.7601 16.2058C85.1921 15.5098 85.7741 14.9698 86.5061 14.5858C87.2501 14.1898 88.0901 13.9918 89.0261 13.9918C90.0581 13.9918 90.8861 14.2018 91.5101 14.6218C92.1461 15.0298 92.6081 15.5878 92.8961 16.2958C93.1841 17.0038 93.3281 17.7958 93.3281 18.6718C93.3281 19.1998 93.2441 19.7398 93.0761 20.2918C92.9081 20.8318 92.6501 21.3358 92.3021 21.8038C91.9541 22.2598 91.4981 22.6318 90.9341 22.9198C90.3701 23.1958 89.6921 23.3338 88.9001 23.3338ZM89.6561 21.5338C90.3641 21.5338 90.9761 21.4138 91.4921 21.1738C92.0081 20.9338 92.4041 20.5978 92.6801 20.1658C92.9561 19.7338 93.0941 19.2358 93.0941 18.6718C93.0941 18.0598 92.9501 17.5438 92.6621 17.1238C92.3861 16.6918 91.9901 16.3678 91.4741 16.1518C90.9701 15.9238 90.3641 15.8098 89.6561 15.8098C88.6601 15.8098 87.8861 16.0738 87.3341 16.6018C86.7821 17.1178 86.5061 17.8078 86.5061 18.6718C86.5061 19.2478 86.6381 19.7518 86.9021 20.1838C87.1661 20.6038 87.5321 20.9338 88.0001 21.1738C88.4801 21.4138 89.0321 21.5338 89.6561 21.5338ZM93.0941 14.1898H95.4341V23.1358H93.2561C93.2561 23.1358 93.2381 23.0218 93.2021 22.7938C93.1781 22.5538 93.1541 22.2538 93.1301 21.8938C93.1061 21.5338 93.0941 21.1798 93.0941 20.8318V14.1898Z" fill="#C3642E"/>
<path d="M102.844 17.4658L102.826 16.4578L110.674 23.1358H107.218L100.234 17.0158L106.444 11.4898H109.846L102.844 17.4658ZM97.8579 11.4898H100.252V23.1358H97.8579V11.4898ZM114.894 10.2658V12.3178H112.176V10.2658H114.894ZM112.356 14.1898H114.696V23.1358H112.356V14.1898ZM117.028 14.1898H119.368V23.1358H117.028V14.1898ZM123.526 13.9918C124.078 13.9918 124.588 14.0638 125.056 14.2078C125.524 14.3518 125.932 14.5738 126.28 14.8738C126.628 15.1738 126.898 15.5578 127.09 16.0258C127.282 16.4818 127.378 17.0278 127.378 17.6638V23.1358H125.038V18.0778C125.038 17.3218 124.852 16.7698 124.48 16.4218C124.12 16.0618 123.526 15.8818 122.698 15.8818C122.074 15.8818 121.51 16.0018 121.006 16.2418C120.502 16.4818 120.094 16.7878 119.782 17.1598C119.47 17.5198 119.29 17.8978 119.242 18.2938L119.224 17.3758C119.284 16.9558 119.422 16.5478 119.638 16.1518C119.854 15.7558 120.142 15.3958 120.502 15.0718C120.874 14.7358 121.312 14.4718 121.816 14.2798C122.32 14.0878 122.89 13.9918 123.526 13.9918ZM133.973 21.7678C133.001 21.7678 132.143 21.6238 131.399 21.3358C130.667 21.0358 130.097 20.5978 129.689 20.0218C129.281 19.4458 129.077 18.7498 129.077 17.9338C129.077 17.1298 129.275 16.4338 129.671 15.8458C130.067 15.2578 130.631 14.8018 131.363 14.4778C132.107 14.1538 132.977 13.9918 133.973 13.9918C134.249 13.9918 134.513 14.0098 134.765 14.0458C135.029 14.0818 135.287 14.1298 135.539 14.1898L140.057 14.2078V15.9718C139.445 15.9838 138.821 15.9118 138.185 15.7558C137.561 15.5878 137.009 15.4078 136.529 15.2158L136.475 15.0898C136.883 15.2818 137.267 15.5218 137.627 15.8098C137.987 16.0858 138.275 16.4098 138.491 16.7818C138.719 17.1418 138.833 17.5618 138.833 18.0418C138.833 18.8218 138.635 19.4938 138.239 20.0578C137.843 20.6098 137.279 21.0358 136.547 21.3358C135.827 21.6238 134.969 21.7678 133.973 21.7678ZM136.979 26.8258V26.3938C136.979 25.8418 136.799 25.4578 136.439 25.2418C136.091 25.0258 135.611 24.9178 134.999 24.9178H132.209C131.669 24.9178 131.213 24.8758 130.841 24.7918C130.481 24.7078 130.193 24.5878 129.977 24.4318C129.761 24.2758 129.605 24.0898 129.509 23.8738C129.413 23.6698 129.365 23.4478 129.365 23.2078C129.365 22.7278 129.521 22.3678 129.833 22.1278C130.145 21.8758 130.565 21.7078 131.093 21.6238C131.621 21.5398 132.203 21.5218 132.839 21.5698L133.973 21.7678C133.217 21.7918 132.653 21.8578 132.281 21.9658C131.921 22.0618 131.741 22.2598 131.741 22.5598C131.741 22.7398 131.813 22.8838 131.957 22.9918C132.101 23.0878 132.305 23.1358 132.569 23.1358H135.503C136.307 23.1358 136.991 23.2198 137.555 23.3878C138.131 23.5678 138.569 23.8618 138.869 24.2698C139.169 24.6898 139.319 25.2598 139.319 25.9798V26.8258H136.979ZM133.973 20.0758C134.489 20.0758 134.939 19.9918 135.323 19.8238C135.719 19.6558 136.025 19.4158 136.241 19.1038C136.457 18.7798 136.565 18.3958 136.565 17.9518C136.565 17.4958 136.457 17.1058 136.241 16.7818C136.025 16.4578 135.725 16.2118 135.341 16.0438C134.957 15.8638 134.501 15.7738 133.973 15.7738C133.457 15.7738 133.001 15.8638 132.605 16.0438C132.209 16.2118 131.903 16.4578 131.687 16.7818C131.471 17.1058 131.363 17.4958 131.363 17.9518C131.363 18.3958 131.471 18.7798 131.687 19.1038C131.903 19.4158 132.203 19.6558 132.587 19.8238C132.983 19.9918 133.445 20.0758 133.973 20.0758Z" fill="white"/>
</svg>
