<svg width="170" height="54" viewBox="0 0 170 54" fill="none" xmlns="http://www.w3.org/2000/svg">
<path d="M40.6316 41.2645C37.0832 44.4298 32.5631 46.2873 27.8184 46.53C23.0736 46.7727 18.3883 45.3861 14.5366 42.5993C10.6849 39.8126 7.89743 35.7925 6.63489 31.2034C5.37234 26.6143 5.71031 21.731 7.59287 17.3605C9.47544 12.9899 12.7899 9.39362 16.9886 7.16614C21.1873 4.93867 26.0188 4.21332 30.6847 5.10984C35.3506 6.00636 39.5716 8.47112 42.65 12.0968C45.7285 15.7225 47.4802 20.2921 47.6156 25.0504L26.7543 25.6464L40.6316 41.2645Z" fill="#FFD796"/>
<path d="M32.697 43.9294H26.9872V47.7141H32.697V43.9294Z" fill="#FFD796"/>
<path d="M34.0837 43.1463H28.3738V46.9311H34.0837V43.1463Z" fill="#FFD796"/>
<path d="M40.6092 40.4055H34.8994V43.8967H40.6092V40.4055Z" fill="#FFD796"/>
<path d="M38.0316 42.1511H31.0493V45.6423H38.0316V42.1511Z" fill="#FFD796"/>
<path d="M40.4623 40.6662C40.0538 44.1237 37.2168 43.6637 33.8976 45.7552C32.883 46.7841 31.0706 46.7731 29.8505 46.6262C25.0201 46.622 16.6435 46.0424 13.7151 40.6428L12.0394 39.0298L10.0266 36.8257C7.61215 32.7472 7.47842 31.2592 7.47842 31.2592C6.97616 23.8896 6.40455 20.312 12.1734 14.8727C12.6578 14.4162 15.064 11.763 15.6055 11.3607C21.8845 6.69746 27.9694 4.83093 35.2287 9.30825C38.3607 9.83953 45.3772 17.6328 45.7026 24.264C46.5068 26.5438 46.588 25.616 48.6515 26.6646C49.2194 25.317 48.4897 22.8818 48.2235 21.4765C47.1837 15.9861 42.8652 8.94058 37.3028 6.97289C33.4331 5.60401 29.6039 4.2471 25.3861 4.43104C18.5043 4.73072 11.9599 8.59038 8.2724 14.3593C7.45941 15.6312 7.11494 16.99 6.53499 18.3627C6.02715 19.5652 5.27309 20.9441 5.01482 22.2183C3.26567 30.8478 6.87146 40.3858 14.3686 45.2192C18.7805 48.0635 24.261 49.1448 29.4314 48.5553C32.9905 48.1495 36.2636 46.8788 38.7266 45.2982C40.6217 44.0822 42.4613 42.7806 42.506 41.8094" fill="#4C2121"/>
<path d="M26.3605 4.8349H26.2017V48.1725H26.3605V4.8349Z" fill="#4C2121" stroke="#4C2121" stroke-width="0.596752"/>
<path d="M5.31824 25.2319V25.3907L48.499 25.3907V25.2319L5.31824 25.2319Z" fill="#4C2121" stroke="#4C2121" stroke-width="0.596188"/>
<path d="M12.5355 10.4245L12.418 10.5319L41.6186 42.2113L41.7361 42.1039L12.5355 10.4245Z" fill="#4C2121" stroke="#4C2121" stroke-width="0.5962"/>
<path d="M40.4955 9.75344L40.613 9.86089L11.4125 41.5403L11.2949 41.4328L40.4955 9.75344Z" fill="#4C2121" stroke="#4C2121" stroke-width="0.5962"/>
<path d="M35.6788 16.7425L37.9388 15.3535L39.8869 14.2174L39.9649 16.861L39.9787 19.1092L37.6408 17.8546L35.6788 16.7425Z" fill="#C3642E"/>
<path d="M28.2306 14.7017L30.4906 13.3127L32.4387 12.1766L32.5167 14.8202L32.5306 17.0684L30.1926 15.8138L28.2306 14.7017Z" fill="#C3642E"/>
<path d="M21.3395 11.3799L22.5646 9.67148L23.6393 8.24356L24.5075 10.1513L25.2076 11.7897L23.1144 11.5904L21.3395 11.3799Z" fill="#C3642E"/>
<path d="M13.0933 16.025L14.2265 15.2027L15.2057 14.5262L15.3535 15.9142L15.4516 17.0968L14.1706 16.531L13.0933 16.025Z" fill="#C3642E"/>
<path d="M8.76642 31.6275L11.893 31.1336L14.5601 30.7754L13.4336 33.7235L12.418 36.2065L10.4178 33.7523L8.76642 31.6275Z" fill="#C3642E"/>
<path d="M18.163 35.461L21.2896 34.9671L23.9566 34.6089L22.8302 37.557L21.8145 40.04L19.8144 37.5858L18.163 35.461Z" fill="#C3642E"/>
<path d="M27.2067 41.1827L30.3334 40.6889L33.0004 40.3307L31.8739 43.2787L30.8583 45.7617L28.8581 43.3075L27.2067 41.1827Z" fill="#C3642E"/>
<path d="M38.1375 24.0994C39.3607 24.0994 40.3523 23.1077 40.3523 21.8845C40.3523 20.6613 39.3607 19.6696 38.1375 19.6696C36.9143 19.6696 35.9227 20.6613 35.9227 21.8845C35.9227 23.1077 36.9143 24.0994 38.1375 24.0994Z" fill="#FFBB56"/>
<path d="M29.273 11.9463C30.0885 11.9463 30.7496 11.2852 30.7496 10.4697C30.7496 9.65422 30.0885 8.99312 29.273 8.99312C28.4575 8.99312 27.7964 9.65422 27.7964 10.4697C27.7964 11.2852 28.4575 11.9463 29.273 11.9463Z" fill="#FFBB56"/>
<path d="M22.3518 18.4062C23.9828 18.4062 25.305 17.084 25.305 15.4531C25.305 13.8221 23.9828 12.5 22.3518 12.5C20.7209 12.5 19.3987 13.8221 19.3987 15.4531C19.3987 17.084 20.7209 18.4062 22.3518 18.4062Z" fill="#FFBB56"/>
<path d="M12.6619 24.0355C14.2928 24.0355 15.615 22.7134 15.615 21.0824C15.615 19.4515 14.2928 18.1293 12.6619 18.1293C11.0309 18.1293 9.7088 19.4515 9.7088 21.0824C9.7088 22.7134 11.0309 24.0355 12.6619 24.0355Z" fill="#FFBB56"/>
<path d="M15.0612 29.7571C15.8766 29.7571 16.5377 29.0961 16.5377 28.2807C16.5377 27.4652 15.8766 26.8041 15.0612 26.8041C14.2457 26.8041 13.5846 27.4652 13.5846 28.2807C13.5846 29.0961 14.2457 29.7571 15.0612 29.7571Z" fill="#FFBB56"/>
<path d="M16.6301 40.739C17.4455 40.739 18.1066 40.0779 18.1066 39.2624C18.1066 38.447 17.4455 37.7859 16.6301 37.7859C15.8146 37.7859 15.1536 38.447 15.1536 39.2624C15.1536 40.0779 15.8146 40.739 16.6301 40.739Z" fill="#FFBB56"/>
<path d="M21.1521 44.7073C21.9675 44.7073 22.6286 44.0462 22.6286 43.2308C22.6286 42.4153 21.9675 41.7542 21.1521 41.7542C20.3366 41.7542 19.6755 42.4153 19.6755 43.2308C19.6755 44.0462 20.3366 44.7073 21.1521 44.7073Z" fill="#FFBB56"/>
<path d="M31.1649 39.0778C32.4646 39.0778 33.5181 38.0243 33.5181 36.7246C33.5181 35.4249 32.4646 34.3714 31.1649 34.3714C29.8652 34.3714 28.8116 35.4249 28.8116 36.7246C28.8116 38.0243 29.8652 39.0778 31.1649 39.0778Z" fill="#FFBB56"/>
<path d="M35.8714 42.2619C36.6869 42.2619 37.348 41.6008 37.348 40.7853C37.348 39.9698 36.6869 39.3087 35.8714 39.3087C35.0559 39.3087 34.3949 39.9698 34.3949 40.7853C34.3949 41.6008 35.0559 42.2619 35.8714 42.2619Z" fill="#FFBB56"/>
<rect x="15.8825" y="16.9729" width="20.252" height="17.7186" rx="4.42966" fill="#C3642E"/>
<path d="M24.3735 21.4026C23.9092 21.4026 23.5327 21.7773 23.5327 22.2399C23.5327 22.6294 23.7999 22.9563 24.1615 23.0501L23.3016 25.0353C23.6879 25.1052 23.9805 25.4419 23.9805 25.847C23.9805 26.3026 23.6099 26.6723 23.1526 26.6723C22.6951 26.6723 22.3246 26.3026 22.3246 25.8469C22.3246 25.523 22.512 25.2431 22.7846 25.108L21.5483 23.1886C21.7431 23.0476 21.87 22.8193 21.87 22.5609C21.87 22.1323 21.5217 21.7842 21.0914 21.7842C20.6611 21.7842 20.3121 22.1323 20.3121 22.5609C20.3121 22.9896 20.6611 23.337 21.0914 23.337C21.1092 23.337 21.1271 23.3367 21.1446 23.3355L22.1642 28.8354H29.8521L30.8723 23.3355C30.8898 23.3367 30.9077 23.337 30.9255 23.337C31.3558 23.337 31.7048 22.9896 31.7048 22.561C31.7048 22.1323 31.3558 21.7842 30.9255 21.7842C30.4952 21.7842 30.1463 22.1324 30.1463 22.561C30.1462 22.8208 30.2749 23.0501 30.4716 23.1909L29.2392 25.1178C29.5015 25.2564 29.6802 25.5307 29.6802 25.847C29.6802 26.3026 29.3097 26.6723 28.8523 26.6723C28.3949 26.6723 28.0244 26.3026 28.0244 25.847C28.0244 25.4324 28.331 25.0894 28.7306 25.0308L27.8852 23.0554C28.2568 22.9687 28.5337 22.6365 28.5337 22.2399C28.5337 21.7773 28.1573 21.4026 27.6929 21.4026C27.2285 21.4026 26.852 21.7773 26.852 22.2399C26.852 22.5984 27.0785 22.9041 27.3964 23.0236L26.313 24.8642C26.6687 24.9737 26.9273 25.303 26.9273 25.6933C26.9273 26.1729 26.5368 26.5617 26.0553 26.5617C25.5738 26.5617 25.184 26.1729 25.184 25.6932C25.184 25.326 25.4128 25.0124 25.736 24.8854L24.6625 23.0266C24.9845 22.9092 25.2145 22.6013 25.2145 22.2399C25.2145 21.7773 24.838 21.4025 24.3736 21.4025L24.3735 21.4026ZM22.1635 29.2881C21.5801 29.3793 21.6073 30.2535 22.2653 30.2535H22.4273L22.4288 30.2619H29.5883L29.5898 30.2535H29.7754C30.4087 30.2535 30.4536 29.383 29.8803 29.2882H22.1634L22.1635 29.2881Z" fill="white"/>
<path d="M61.8479 28.3778V26.2655H67.7464C68.4505 26.2655 69.0084 26.0795 69.4203 25.7075C69.8321 25.3223 70.038 24.7909 70.038 24.1134C70.038 23.4093 69.8321 22.8712 69.4203 22.4993C69.0084 22.1273 68.4505 21.9413 67.7464 21.9413H62.1668V32.5625H59.5165V19.6696H67.5073C68.2246 19.6696 68.8955 19.7559 69.5199 19.9287C70.1576 20.1014 70.7089 20.367 71.1739 20.7257C71.6521 21.0844 72.0241 21.5428 72.2898 22.1007C72.5555 22.6587 72.6883 23.3296 72.6883 24.1134C72.6883 24.8839 72.5555 25.5415 72.2898 26.0862C72.0241 26.6308 71.6521 27.0759 71.1739 27.4213C70.7089 27.7534 70.1576 27.9992 69.5199 28.1586C68.8955 28.3047 68.2246 28.3778 67.5073 28.3778H61.8479ZM77.8132 18.3145V20.5862H74.8042V18.3145H77.8132ZM75.0035 22.6587H77.594V32.5625H75.0035V22.6587ZM90.1198 24.6315L82.2486 31.3669L81.9696 30.6096H90.2593V32.5625H80.1164V30.6096L87.9876 23.8742L88.2666 24.6315H80.1164V22.6587H90.1198V24.6315ZM102.516 24.6315L94.6447 31.3669L94.3657 30.6096H102.655V32.5625H92.5125V30.6096L100.384 23.8742L100.663 24.6315H92.5125V22.6587H102.516V24.6315ZM109.655 32.7817C108.671 32.7817 107.775 32.5691 106.964 32.144C106.167 31.7056 105.53 31.1012 105.051 30.3307C104.586 29.5468 104.354 28.6435 104.354 27.6206C104.354 26.5711 104.593 25.661 105.071 24.8905C105.55 24.12 106.194 23.5222 107.004 23.0971C107.828 22.6587 108.758 22.4395 109.794 22.4395C110.937 22.4395 111.853 22.672 112.544 23.1369C113.248 23.5886 113.76 24.2064 114.078 24.9902C114.397 25.774 114.557 26.6508 114.557 27.6206C114.557 28.2051 114.464 28.8029 114.278 29.414C114.092 30.0118 113.806 30.5698 113.421 31.0879C113.036 31.5927 112.531 32.0045 111.906 32.3234C111.282 32.6289 110.531 32.7817 109.655 32.7817ZM110.491 30.789C111.275 30.789 111.953 30.6561 112.524 30.3904C113.095 30.1247 113.534 29.7528 113.839 29.2745C114.145 28.7963 114.298 28.2449 114.298 27.6206C114.298 26.943 114.138 26.3718 113.819 25.9068C113.514 25.4286 113.075 25.0699 112.504 24.8307C111.946 24.5783 111.275 24.4521 110.491 24.4521C109.389 24.4521 108.532 24.7444 107.921 25.3289C107.31 25.9002 107.004 26.664 107.004 27.6206C107.004 28.2582 107.15 28.8162 107.443 29.2944C107.735 29.7594 108.14 30.1247 108.658 30.3904C109.19 30.6561 109.801 30.789 110.491 30.789ZM114.298 22.6587H116.888V32.5625H114.477C114.477 32.5625 114.457 32.4363 114.417 32.1839C114.391 31.9182 114.364 31.5861 114.337 31.1875C114.311 30.789 114.298 30.3971 114.298 30.0118V22.6587Z" fill="#C3642E"/>
<path d="M125.091 26.2854L125.071 25.1695L133.76 32.5625H129.934L122.202 25.7872L129.077 19.6696H132.843L125.091 26.2854ZM119.571 19.6696H122.222V32.5625H119.571V19.6696ZM138.432 18.3145V20.5862H135.423V18.3145H138.432ZM135.622 22.6587H138.212V32.5625H135.622V22.6587ZM140.795 22.6587H143.385V32.5625H140.795V22.6587ZM147.988 22.4395C148.599 22.4395 149.164 22.5192 149.682 22.6786C150.2 22.838 150.652 23.0838 151.037 23.4159C151.422 23.748 151.721 24.1731 151.934 24.6913C152.146 25.1961 152.253 25.8005 152.253 26.5046V32.5625H149.662V26.963C149.662 26.126 149.456 25.5149 149.044 25.1297C148.646 24.7311 147.988 24.5318 147.072 24.5318C146.381 24.5318 145.756 24.6647 145.198 24.9304C144.64 25.1961 144.189 25.5348 143.843 25.9467C143.498 26.3452 143.299 26.7637 143.246 27.2021L143.226 26.1858C143.292 25.7208 143.445 25.2691 143.684 24.8307C143.923 24.3923 144.242 23.9938 144.64 23.6351C145.052 23.2631 145.537 22.9709 146.095 22.7583C146.653 22.5458 147.284 22.4395 147.988 22.4395ZM159.553 31.048C158.477 31.048 157.527 30.8886 156.704 30.5698C155.893 30.2377 155.262 29.7528 154.811 29.1151C154.359 28.4774 154.133 27.7069 154.133 26.8035C154.133 25.9135 154.352 25.1429 154.791 24.492C155.229 23.841 155.853 23.3362 156.664 22.9775C157.487 22.6188 158.451 22.4395 159.553 22.4395C159.859 22.4395 160.151 22.4594 160.43 22.4993C160.722 22.5391 161.008 22.5923 161.287 22.6587L166.289 22.6786V24.6315C165.611 24.6448 164.92 24.565 164.216 24.3923C163.525 24.2064 162.914 24.0071 162.383 23.7945L162.323 23.655C162.775 23.8676 163.2 24.1333 163.598 24.4521C163.997 24.7577 164.316 25.1164 164.555 25.5282C164.807 25.9267 164.934 26.3917 164.934 26.9231C164.934 27.7866 164.714 28.5306 164.276 29.1549C163.838 29.766 163.213 30.2377 162.403 30.5698C161.606 30.8886 160.656 31.048 159.553 31.048ZM162.881 36.6476V36.1693C162.881 35.5582 162.682 35.1331 162.283 34.894C161.898 34.6549 161.367 34.5353 160.689 34.5353H157.6C157.003 34.5353 156.498 34.4888 156.086 34.3958C155.687 34.3028 155.368 34.17 155.129 33.9973C154.89 33.8246 154.718 33.6186 154.611 33.3795C154.505 33.1537 154.452 32.9079 154.452 32.6422C154.452 32.1108 154.625 31.7123 154.97 31.4466C155.315 31.1676 155.78 30.9816 156.365 30.8886C156.949 30.7956 157.594 30.7757 158.298 30.8288L159.553 31.048C158.716 31.0746 158.092 31.1477 157.68 31.2672C157.282 31.3735 157.082 31.5927 157.082 31.9248C157.082 32.1241 157.162 32.2835 157.321 32.4031C157.481 32.5094 157.707 32.5625 157.999 32.5625H161.247C162.137 32.5625 162.894 32.6555 163.519 32.8415C164.156 33.0408 164.641 33.3662 164.973 33.8179C165.306 34.2829 165.472 34.9139 165.472 35.711V36.6476H162.881ZM159.553 29.1749C160.124 29.1749 160.623 29.0819 161.048 28.8959C161.486 28.7099 161.825 28.4442 162.064 28.0988C162.303 27.7401 162.423 27.315 162.423 26.8235C162.423 26.3186 162.303 25.8869 162.064 25.5282C161.825 25.1695 161.493 24.8972 161.068 24.7112C160.643 24.5119 160.138 24.4123 159.553 24.4123C158.982 24.4123 158.477 24.5119 158.039 24.7112C157.6 24.8972 157.262 25.1695 157.022 25.5282C156.783 25.8869 156.664 26.3186 156.664 26.8235C156.664 27.315 156.783 27.7401 157.022 28.0988C157.262 28.4442 157.594 28.7099 158.019 28.8959C158.457 29.0819 158.969 29.1749 159.553 29.1749Z" fill="#343434"/>
</svg>
