<svg width="16" height="17" viewBox="0 0 16 17" fill="none" xmlns="http://www.w3.org/2000/svg">
<path d="M2.60147 2.76976L1.3521 4.35163L0.257324 9.11921L1.75079 13.3489L4.78709 15.5952L7.2741 16.2368L9.58083 16.1894L10.9318 15.753L12.0101 15.1804L14.3339 12.8934L15.7967 9.55479L15.7913 7.3667L14.2317 3.5848L12.4896 1.95084L8.75554 0.817604L5.28322 1.13308L2.60147 2.76976Z" fill="#FFE3B5"/>
<path d="M15.4206 10.4656L15.5282 10.5727H15.582L15.9572 9.40456L15.9461 8.31384L15.6935 7.88753C15.5741 8.80816 15.221 11.5088 14.5064 12.1794L14.4526 12.0723L14.3988 12.1258C14.5922 12.5914 13.7907 12.8612 13.9686 13.3041L13.3233 13.4112L13.1082 13.6789V13.7325L13.2695 13.6789L13.1082 13.8396L13.2157 13.9467L12.9468 14.1074L13.0544 13.8932L12.8393 13.9467C12.8355 14.1445 12.7613 14.1875 12.5704 14.2145L12.5166 14.643L11.6562 14.8036H11.6024C11.5605 14.9441 11.5353 15.0068 11.3873 14.9643H11.3335L11.0646 15.2856L10.1504 15.6605L9.88153 15.5534V15.7141C9.58785 15.712 9.37553 15.8314 9.2362 16.089L9.07486 16.0354V15.9283L9.2362 15.8747H8.10687L6.00954 15.6584L5.04154 15.4463C4.90669 15.0531 3.72542 14.5096 3.32066 14.4823C3.23817 13.9731 2.39453 13.478 2.08378 13.0363L1.97622 13.0898L0.631782 10.0907L0.739337 10.1442C0.369325 7.42339 1.03329 4.62107 3.11701 2.65641C3.29195 2.49145 3.55527 2.49535 3.75088 2.35007C6.01884 0.665692 9.18408 0.579281 11.6562 1.91316C13.3704 2.83809 14.5866 4.17523 15.2375 6.02044C15.528 6.84391 15.6097 7.84396 15.9249 8.65876C16.13 8.17199 15.8603 7.17071 15.7642 6.66311C15.3886 4.67998 13.8288 2.13514 11.8196 1.42442C10.4219 0.929981 9.03878 0.439836 7.51531 0.506277C5.02961 0.614686 2.66574 2.00867 1.33379 4.09242C1.04014 4.55182 0.915722 5.04261 0.706226 5.53843C0.52271 5.97277 0.250456 6.47084 0.157162 6.9311C-0.474638 10.0481 0.827802 13.4932 3.53577 15.239C5.12936 16.2664 7.10892 16.657 8.97645 16.444C11.2511 16.1847 13.3801 14.7331 14.583 12.822C15.0096 12.1441 15.5181 11.2877 15.4206 10.4656ZM13.9686 12.7685C13.8197 13.1393 13.7502 13.114 13.9686 12.7685ZM13.4308 13.4647L13.3771 13.6254H13.3233L13.4308 13.4647Z" fill="#4C2121"/>
<path d="M7.86791 0.652527H7.81055V16.3062H7.86791V0.652527Z" fill="#4C2121" stroke="#4C2121" stroke-width="0.215994"/>
<path d="M0.26709 8.01975V8.07738L15.8641 8.07738V8.01975L0.26709 8.01975Z" fill="#4C2121" stroke="#4C2121" stroke-width="0.215791"/>
<path d="M2.87399 2.67151L2.83154 2.71032L13.3788 14.153L13.4213 14.1142L2.87399 2.67151Z" fill="#4C2121" stroke="#4C2121" stroke-width="0.215791"/>
<path d="M12.9732 2.42914L13.0156 2.46795L2.46832 13.9106L2.42587 13.8718L12.9732 2.42914Z" fill="#4C2121" stroke="#4C2121" stroke-width="0.215791"/>
<path d="M7.83396 10.6514C9.23408 10.6514 10.3691 9.52109 10.3691 8.12674C10.3691 6.73239 9.23408 5.60205 7.83396 5.60205C6.43385 5.60205 5.29883 6.73239 5.29883 8.12674C5.29883 9.52109 6.43385 10.6514 7.83396 10.6514Z" fill="#C3642E"/>
<path d="M7.39081 6.80085C7.26345 6.80085 7.16019 6.90364 7.16019 7.03051C7.16019 7.13735 7.23348 7.22702 7.33264 7.25273L7.0968 7.79723C7.20274 7.8164 7.283 7.90876 7.283 8.01985C7.283 8.14482 7.18137 8.24621 7.05592 8.24621C6.93046 8.24621 6.82883 8.14481 6.82883 8.01984C6.82883 7.93099 6.88024 7.85421 6.95499 7.81716L6.61592 7.29071C6.66935 7.25204 6.70413 7.18944 6.70413 7.11856C6.70413 7.00099 6.60862 6.90551 6.4906 6.90551C6.37257 6.90551 6.27686 7.00101 6.27686 7.11856C6.27686 7.23614 6.37257 7.33143 6.49059 7.33143C6.49548 7.33143 6.50038 7.33133 6.50519 7.33102L6.78483 8.83951H8.89345L9.17328 7.33102C9.17809 7.33133 9.18299 7.33143 9.18788 7.33143C9.3059 7.33143 9.40161 7.23614 9.40161 7.11857C9.40161 7.00099 9.3059 6.90552 9.18788 6.90552C9.06986 6.90552 8.97415 7.00101 8.97415 7.11857C8.97414 7.18983 9.00942 7.25272 9.06339 7.29135L8.72537 7.81987C8.79729 7.85788 8.84632 7.93311 8.84632 8.01985C8.84632 8.14483 8.74469 8.24621 8.61924 8.24621C8.49379 8.24621 8.39215 8.14482 8.39215 8.01985C8.39215 7.90615 8.47624 7.81207 8.58586 7.79599L8.35398 7.25418C8.45591 7.23041 8.53186 7.1393 8.53186 7.03051C8.53186 6.90363 8.4286 6.80085 8.30125 6.80085C8.17386 6.80085 8.07061 6.90364 8.07061 7.03051C8.07061 7.12885 8.13272 7.2127 8.21991 7.24546L7.92277 7.7503C8.02033 7.78034 8.09126 7.87067 8.09126 7.9777C8.09126 8.10925 7.98414 8.21589 7.85208 8.21589C7.72002 8.21589 7.61311 8.10925 7.61311 7.97769C7.61311 7.87696 7.67585 7.79094 7.7645 7.75611L7.47006 7.24628C7.55837 7.21408 7.62146 7.12964 7.62146 7.03051C7.62146 6.90362 7.51819 6.80084 7.39082 6.80084L7.39081 6.80085ZM6.78463 8.96369C6.62463 8.98869 6.63209 9.22847 6.81258 9.22847H6.85699L6.85742 9.23076H8.82111L8.82153 9.22847H8.87241C9.04613 9.22847 9.05845 8.98972 8.90119 8.96371H6.78463L6.78463 8.96369Z" fill="white"/>
<path d="M2.38539 9.49096L2.0973 9.11735L1.85986 8.79419L2.32881 8.73253L2.72855 8.68933L2.5477 9.12461L2.38539 9.49096Z" fill="#C3642E"/>
<path d="M4.02457 10.7214L4.00442 10.2507L3.99661 9.85037L4.41596 10.0683L4.76801 10.2618L4.36882 10.5144L4.02457 10.7214Z" fill="#C3642E"/>
<path d="M2.36192 12.1289L2.25428 11.6702L2.17189 11.2783L2.6246 11.4148L3.00662 11.5397L2.66155 11.8619L2.36192 12.1289Z" fill="#C3642E"/>
<path d="M6.32986 14.2762L6.73323 14.5223L7.07116 14.7393L6.65553 14.9641L6.29787 15.1471L6.31012 14.6762L6.32986 14.2762Z" fill="#C3642E"/>
<path d="M5.44889 13.8872L5.30464 13.2725L5.19422 12.7472L5.80093 12.9302L6.31291 13.0976L5.85045 13.5293L5.44889 13.8872Z" fill="#C3642E"/>
<path d="M8.48008 12.5443L8.37244 12.0856L8.29005 11.6936L8.74276 11.8301L9.12479 11.9551L8.77971 12.2772L8.48008 12.5443Z" fill="#C3642E"/>
<path d="M8.43873 14.0258L8.85853 13.8087L9.21957 13.6325L9.19846 14.1031L9.17119 14.5026L8.77252 14.2491L8.43873 14.0258Z" fill="#C3642E"/>
<path d="M11.1188 14.1725L11.0111 13.7138L10.9287 13.3218L11.3814 13.4584L11.7635 13.5833L11.4184 13.9054L11.1188 14.1725Z" fill="#C3642E"/>
<path d="M11.5777 9.902L11.4701 9.44329L11.3877 9.05136L11.8404 9.18788L12.2224 9.31279L11.8774 9.63497L11.5777 9.902Z" fill="#C3642E"/>
<path d="M11.816 11.633L11.9533 11.1823L12.0789 10.8019L12.4023 11.1457L12.6703 11.4442L12.2096 11.5512L11.816 11.633Z" fill="#C3642E"/>
<path d="M13.5132 11.3741L13.7593 10.9718L13.9765 10.6348L14.2032 11.0482L14.3877 11.404L13.9148 11.3929L13.5132 11.3741Z" fill="#C3642E"/>
<path d="M12.3416 4.01984L12.7441 3.77244L13.0911 3.57009L13.1049 4.04096L13.1074 4.44138L12.691 4.21792L12.3416 4.01984Z" fill="#C3642E"/>
<path d="M12.0032 6.72968L12.4057 6.48228L12.7527 6.27993L12.7666 6.75079L12.769 7.15122L12.3526 6.92776L12.0032 6.72968Z" fill="#C3642E"/>
<path d="M13.443 6.81051L14.1348 6.38531L14.7311 6.03755L14.755 6.8468L14.7592 7.53498L14.0436 7.15093L13.443 6.81051Z" fill="#C3642E"/>
<path d="M8.41827 3.65706L9.04977 3.73111L9.5879 3.78164L9.33654 3.19998L9.11142 2.7106L8.73128 3.21821L8.41827 3.65706Z" fill="#C3642E"/>
<path d="M8.67652 4.98459L9.07904 5.23199L9.42601 5.43434L9.43989 4.96348L9.44237 4.56306L9.02596 4.78652L8.67652 4.98459Z" fill="#C3642E"/>
<path d="M10.218 2.64957L10.6205 2.40217L10.9675 2.19982L10.9814 2.67069L10.9839 3.07111L10.5675 2.84765L10.218 2.64957Z" fill="#C3642E"/>
<path d="M4.49878 3.09394L4.90131 2.84654L5.24828 2.64419L5.26216 3.11505L5.26463 3.51547L4.84823 3.29201L4.49878 3.09394Z" fill="#C3642E"/>
<path d="M6.4484 2.10454L6.81799 1.81055L7.13789 1.56797L7.20875 2.03371L7.25976 2.43091L6.81931 2.25915L6.4484 2.10454Z" fill="#C3642E"/>
<path d="M2.08268 5.124L2.45226 4.83001L2.77217 4.58742L2.84303 5.05317L2.89403 5.45036L2.45358 5.27861L2.08268 5.124Z" fill="#C3642E"/>
<path d="M3.58317 6.90148L3.95275 6.60749L4.27265 6.3649L4.34352 6.83065L4.39452 7.22785L3.95407 7.05609L3.58317 6.90148Z" fill="#C3642E"/>
<path d="M2.36624 7.48312C2.70227 7.48312 2.97468 7.21183 2.97468 6.87717C2.97468 6.54251 2.70227 6.27121 2.36624 6.27121C2.03022 6.27121 1.75781 6.54251 1.75781 6.87717C1.75781 7.21183 2.03022 7.48312 2.36624 7.48312Z" fill="#FFBB56"/>
<path d="M6.64896 3.99785C6.98499 3.99785 7.25739 3.72656 7.25739 3.3919C7.25739 3.05724 6.98499 2.78594 6.64896 2.78594C6.31293 2.78594 6.04053 3.05724 6.04053 3.3919C6.04053 3.72656 6.31293 3.99785 6.64896 3.99785Z" fill="#FFBB56"/>
<path d="M6.07814 5.30168C6.24616 5.30168 6.38236 5.16603 6.38236 4.9987C6.38236 4.83137 6.24616 4.69572 6.07814 4.69572C5.91013 4.69572 5.77393 4.83137 5.77393 4.9987C5.77393 5.16603 5.91013 5.30168 6.07814 5.30168Z" fill="#FFBB56"/>
<path d="M8.51222 2.19111C8.68024 2.19111 8.81644 2.05546 8.81644 1.88813C8.81644 1.7208 8.68024 1.58515 8.51222 1.58515C8.34421 1.58515 8.20801 1.7208 8.20801 1.88813C8.20801 2.05546 8.34421 2.19111 8.51222 2.19111Z" fill="#FFBB56"/>
<path d="M10.2158 3.86758C10.3839 3.86758 10.5201 3.73193 10.5201 3.5646C10.5201 3.39727 10.3839 3.26162 10.2158 3.26162C10.0478 3.26162 9.91162 3.39727 9.91162 3.5646C9.91162 3.73193 10.0478 3.86758 10.2158 3.86758Z" fill="#FFBB56"/>
<path d="M13.6841 5.72585C13.8521 5.72585 13.9883 5.5902 13.9883 5.42287C13.9883 5.25554 13.8521 5.1199 13.6841 5.1199C13.5161 5.1199 13.3799 5.25554 13.3799 5.42287C13.3799 5.5902 13.5161 5.72585 13.6841 5.72585Z" fill="#FFBB56"/>
<path d="M11.4531 7.52352C11.6212 7.52352 11.7574 7.38787 11.7574 7.22054C11.7574 7.05321 11.6212 6.91756 11.4531 6.91756C11.2851 6.91756 11.1489 7.05321 11.1489 7.22054C11.1489 7.38787 11.2851 7.52352 11.4531 7.52352Z" fill="#FFBB56"/>
<path d="M3.66457 4.99869C3.83258 4.99869 3.96878 4.86305 3.96878 4.69572C3.96878 4.52839 3.83258 4.39274 3.66457 4.39274C3.49655 4.39274 3.36035 4.52839 3.36035 4.69572C3.36035 4.86305 3.49655 4.99869 3.66457 4.99869Z" fill="#FFBB56"/>
<path d="M4.35402 9.0788C4.52203 9.0788 4.65824 8.94316 4.65824 8.77583C4.65824 8.60849 4.52203 8.47285 4.35402 8.47285C4.18601 8.47285 4.0498 8.60849 4.0498 8.77583C4.0498 8.94316 4.18601 9.0788 4.35402 9.0788Z" fill="#FFBB56"/>
<path d="M3.01564 10.9775C3.18366 10.9775 3.31986 10.8418 3.31986 10.6745C3.31986 10.5072 3.18366 10.3715 3.01564 10.3715C2.84763 10.3715 2.71143 10.5072 2.71143 10.6745C2.71143 10.8418 2.84763 10.9775 3.01564 10.9775Z" fill="#FFBB56"/>
<path d="M4.6382 12.9165C4.80621 12.9165 4.94242 12.7809 4.94242 12.6135C4.94242 12.4462 4.80621 12.3106 4.6382 12.3106C4.47019 12.3106 4.33398 12.4462 4.33398 12.6135C4.33398 12.7809 4.47019 12.9165 4.6382 12.9165Z" fill="#FFBB56"/>
<path d="M4.35402 14.2698C4.52203 14.2698 4.65824 14.1342 4.65824 13.9668C4.65824 13.7995 4.52203 13.6639 4.35402 13.6639C4.18601 13.6639 4.0498 13.7995 4.0498 13.9668C4.0498 14.1342 4.18601 14.2698 4.35402 14.2698Z" fill="#FFBB56"/>
<path d="M6.72707 14.0477C6.89508 14.0477 7.03128 13.912 7.03128 13.7447C7.03128 13.5773 6.89508 13.4417 6.72707 13.4417C6.55905 13.4417 6.42285 13.5773 6.42285 13.7447C6.42285 13.912 6.55905 14.0477 6.72707 14.0477Z" fill="#FFBB56"/>
<path d="M8.73488 15.3C8.90289 15.3 9.0391 15.1643 9.0391 14.997C9.0391 14.8296 8.90289 14.694 8.73488 14.694C8.56687 14.694 8.43066 14.8296 8.43066 14.997C8.43066 15.1643 8.56687 15.3 8.73488 15.3Z" fill="#FFBB56"/>
<path d="M10.1143 14.6132C10.2823 14.6132 10.4185 14.4776 10.4185 14.3102C10.4185 14.1429 10.2823 14.0072 10.1143 14.0072C9.94626 14.0072 9.81006 14.1429 9.81006 14.3102C9.81006 14.4776 9.94626 14.6132 10.1143 14.6132Z" fill="#FFBB56"/>
<path d="M9.34377 11.5026C9.51178 11.5026 9.64798 11.367 9.64798 11.1997C9.64798 11.0323 9.51178 10.8967 9.34377 10.8967C9.17575 10.8967 9.03955 11.0323 9.03955 11.1997C9.03955 11.367 9.17575 11.5026 9.34377 11.5026Z" fill="#FFBB56"/>
<path d="M10.8589 10.3938C11.0269 10.3938 11.1631 10.2582 11.1631 10.0908C11.1631 9.9235 11.0269 9.78785 10.8589 9.78785C10.6909 9.78785 10.5547 9.9235 10.5547 10.0908C10.5547 10.2582 10.6909 10.3938 10.8589 10.3938Z" fill="#FFBB56"/>
<path d="M13.2969 12.9361C13.4649 12.9361 13.6011 12.8004 13.6011 12.6331C13.6011 12.4658 13.4649 12.3301 13.2969 12.3301C13.1289 12.3301 12.9927 12.4658 12.9927 12.6331C12.9927 12.8004 13.1289 12.9361 13.2969 12.9361Z" fill="#FFBB56"/>
<path d="M10.2276 12.8963C10.5636 12.8963 10.836 12.625 10.836 12.2903C10.836 11.9557 10.5636 11.6844 10.2276 11.6844C9.89155 11.6844 9.61914 11.9557 9.61914 12.2903C9.61914 12.625 9.89155 12.8963 10.2276 12.8963Z" fill="#FFBB56"/>
<path d="M6.04007 12.2964C6.3761 12.2964 6.64851 12.0251 6.64851 11.6905C6.64851 11.3558 6.3761 11.0845 6.04007 11.0845C5.70405 11.0845 5.43164 11.3558 5.43164 11.6905C5.43164 12.0251 5.70405 12.2964 6.04007 12.2964Z" fill="#FFBB56"/>
<path d="M11.9771 5.92642C12.3131 5.92642 12.5855 5.65512 12.5855 5.32046C12.5855 4.9858 12.3131 4.71451 11.9771 4.71451C11.6411 4.71451 11.3687 4.9858 11.3687 5.32046C11.3687 5.65512 11.6411 5.92642 11.9771 5.92642Z" fill="#FFBB56"/>
<path d="M13.0386 10.3826C13.3746 10.3826 13.647 10.1113 13.647 9.77661C13.647 9.44195 13.3746 9.17065 13.0386 9.17065C12.7026 9.17065 12.4302 9.44195 12.4302 9.77661C12.4302 10.1113 12.7026 10.3826 13.0386 10.3826Z" fill="#FFBB56"/>
</svg>
