<svg width="45" height="45" viewBox="0 0 45 45" fill="none" xmlns="http://www.w3.org/2000/svg">
<path d="M36.6316 37.2645C33.0832 40.4298 28.5631 42.2873 23.8184 42.53C19.0736 42.7727 14.3883 41.3861 10.5366 38.5993C6.68491 35.8126 3.89743 31.7925 2.63489 27.2034C1.37234 22.6143 1.71031 17.731 3.59287 13.3605C5.47544 8.98989 8.78993 5.39362 12.9886 3.16614C17.1873 0.93867 22.0188 0.21332 26.6847 1.10984C31.3506 2.00636 35.5716 4.47112 38.65 8.09683C41.7285 11.7225 43.4802 16.2921 43.6156 21.0504L22.7543 21.6464L36.6316 37.2645Z" fill="#FFD796"/>
<path d="M28.697 39.9294H22.9872V43.7141H28.697V39.9294Z" fill="#FFD796"/>
<path d="M30.0837 39.1463H24.3738V42.9311H30.0837V39.1463Z" fill="#FFD796"/>
<path d="M36.6092 36.4055H30.8994V39.8967H36.6092V36.4055Z" fill="#FFD796"/>
<path d="M34.0316 38.1511H27.0493V41.6423H34.0316V38.1511Z" fill="#FFD796"/>
<path d="M36.4623 36.6662C36.0538 40.1237 33.2168 39.6637 29.8976 41.7552C28.883 42.7841 27.0706 42.7731 25.8505 42.6262C21.0201 42.622 12.6435 42.0424 9.71512 36.6428L8.03937 35.0298L6.02657 32.8257C3.61215 28.7472 3.47842 27.2592 3.47842 27.2592C2.97616 19.8896 2.40455 16.312 8.1734 10.8727C8.6578 10.4162 11.064 7.76298 11.6055 7.36072C17.8845 2.69746 23.9694 0.830934 31.2287 5.30825C34.3607 5.83953 41.3772 13.6328 41.7026 20.264C42.5068 22.5438 42.588 21.616 44.6515 22.6646C45.2194 21.317 44.4897 18.8818 44.2235 17.4765C43.1837 11.9861 38.8652 4.94058 33.3028 2.97289C29.4331 1.60401 25.6039 0.2471 21.3861 0.431039C14.5043 0.730721 7.95994 4.59038 4.2724 10.3593C3.45941 11.6312 3.11494 12.99 2.53499 14.3627C2.02715 15.5652 1.27309 16.9441 1.01482 18.2183C-0.734328 26.8478 2.87146 36.3858 10.3686 41.2192C14.7805 44.0635 20.261 45.1448 25.4314 44.5553C28.9905 44.1495 32.2636 42.8788 34.7266 41.2982C36.6217 40.0822 38.4613 38.7806 38.506 37.8094" fill="#4C2121"/>
<path d="M22.3605 0.8349H22.2017V44.1725H22.3605V0.8349Z" fill="#4C2121" stroke="#4C2121" stroke-width="0.596752"/>
<path d="M1.31824 21.2319V21.3907L44.499 21.3907V21.2319L1.31824 21.2319Z" fill="#4C2121" stroke="#4C2121" stroke-width="0.596188"/>
<path d="M8.53549 6.4245L8.41797 6.53194L37.6186 38.2113L37.7361 38.1039L8.53549 6.4245Z" fill="#4C2121" stroke="#4C2121" stroke-width="0.5962"/>
<path d="M36.4955 5.75344L36.613 5.86089L7.41245 37.5403L7.29493 37.4328L36.4955 5.75344Z" fill="#4C2121" stroke="#4C2121" stroke-width="0.5962"/>
<path d="M31.6788 12.7425L33.9388 11.3535L35.8869 10.2174L35.9649 12.861L35.9787 15.1092L33.6408 13.8546L31.6788 12.7425Z" fill="#C3642E"/>
<path d="M24.2306 10.7017L26.4906 9.31265L28.4387 8.17657L28.5167 10.8202L28.5306 13.0684L26.1926 11.8138L24.2306 10.7017Z" fill="#C3642E"/>
<path d="M17.3395 7.37994L18.5646 5.67148L19.6393 4.24356L20.5075 6.15127L21.2076 7.78966L19.1144 7.59042L17.3395 7.37994Z" fill="#C3642E"/>
<path d="M9.09325 12.025L10.2265 11.2027L11.2057 10.5262L11.3535 11.9142L11.4516 13.0968L10.1706 12.531L9.09325 12.025Z" fill="#C3642E"/>
<path d="M4.76642 27.6275L7.89305 27.1336L10.5601 26.7754L9.43363 29.7235L8.418 32.2065L6.41782 29.7523L4.76642 27.6275Z" fill="#C3642E"/>
<path d="M14.163 31.461L17.2896 30.9671L19.9566 30.6089L18.8302 33.557L17.8145 36.04L15.8144 33.5858L14.163 31.461Z" fill="#C3642E"/>
<path d="M23.2067 37.1827L26.3334 36.6889L29.0004 36.3307L27.8739 39.2787L26.8583 41.7617L24.8581 39.3075L23.2067 37.1827Z" fill="#C3642E"/>
<path d="M34.1375 20.0994C35.3607 20.0994 36.3523 19.1077 36.3523 17.8845C36.3523 16.6613 35.3607 15.6696 34.1375 15.6696C32.9143 15.6696 31.9227 16.6613 31.9227 17.8845C31.9227 19.1077 32.9143 20.0994 34.1375 20.0994Z" fill="#FFBB56"/>
<path d="M25.273 7.94627C26.0885 7.94627 26.7496 7.28517 26.7496 6.46969C26.7496 5.65422 26.0885 4.99312 25.273 4.99312C24.4575 4.99312 23.7964 5.65422 23.7964 6.46969C23.7964 7.28517 24.4575 7.94627 25.273 7.94627Z" fill="#FFBB56"/>
<path d="M18.3518 14.4062C19.9828 14.4062 21.305 13.084 21.305 11.4531C21.305 9.82213 19.9828 8.50002 18.3518 8.50002C16.7209 8.50002 15.3987 9.82213 15.3987 11.4531C15.3987 13.084 16.7209 14.4062 18.3518 14.4062Z" fill="#FFBB56"/>
<path d="M8.66187 20.0355C10.2928 20.0355 11.615 18.7134 11.615 17.0824C11.615 15.4515 10.2928 14.1293 8.66187 14.1293C7.03091 14.1293 5.7088 15.4515 5.7088 17.0824C5.7088 18.7134 7.03091 20.0355 8.66187 20.0355Z" fill="#FFBB56"/>
<path d="M11.0612 25.7571C11.8766 25.7571 12.5377 25.0961 12.5377 24.2807C12.5377 23.4652 11.8766 22.8041 11.0612 22.8041C10.2457 22.8041 9.58459 23.4652 9.58459 24.2807C9.58459 25.0961 10.2457 25.7571 11.0612 25.7571Z" fill="#FFBB56"/>
<path d="M12.6301 36.739C13.4455 36.739 14.1066 36.0779 14.1066 35.2624C14.1066 34.447 13.4455 33.7859 12.6301 33.7859C11.8146 33.7859 11.1536 34.447 11.1536 35.2624C11.1536 36.0779 11.8146 36.739 12.6301 36.739Z" fill="#FFBB56"/>
<path d="M17.1521 40.7073C17.9675 40.7073 18.6286 40.0462 18.6286 39.2308C18.6286 38.4153 17.9675 37.7542 17.1521 37.7542C16.3366 37.7542 15.6755 38.4153 15.6755 39.2308C15.6755 40.0462 16.3366 40.7073 17.1521 40.7073Z" fill="#FFBB56"/>
<path d="M27.1649 35.0778C28.4646 35.0778 29.5181 34.0243 29.5181 32.7246C29.5181 31.4249 28.4646 30.3714 27.1649 30.3714C25.8652 30.3714 24.8116 31.4249 24.8116 32.7246C24.8116 34.0243 25.8652 35.0778 27.1649 35.0778Z" fill="#FFBB56"/>
<path d="M31.8714 38.2619C32.6869 38.2619 33.348 37.6008 33.348 36.7853C33.348 35.9698 32.6869 35.3087 31.8714 35.3087C31.0559 35.3087 30.3949 35.9698 30.3949 36.7853C30.3949 37.6008 31.0559 38.2619 31.8714 38.2619Z" fill="#FFBB56"/>
<rect x="11.8825" y="12.9729" width="20.252" height="17.7186" rx="4.42966" fill="#C3642E"/>
<path d="M20.3735 17.4026C19.9092 17.4026 19.5327 17.7773 19.5327 18.2399C19.5327 18.6294 19.7999 18.9563 20.1615 19.0501L19.3016 21.0353C19.6879 21.1052 19.9805 21.4419 19.9805 21.847C19.9805 22.3026 19.6099 22.6723 19.1526 22.6723C18.6951 22.6723 18.3246 22.3026 18.3246 21.8469C18.3246 21.523 18.512 21.2431 18.7846 21.108L17.5483 19.1886C17.7431 19.0476 17.87 18.8193 17.87 18.5609C17.87 18.1323 17.5217 17.7842 17.0914 17.7842C16.6611 17.7842 16.3121 18.1323 16.3121 18.5609C16.3121 18.9896 16.6611 19.337 17.0914 19.337C17.1092 19.337 17.1271 19.3367 17.1446 19.3355L18.1642 24.8354H25.8521L26.8723 19.3355C26.8898 19.3367 26.9077 19.337 26.9255 19.337C27.3558 19.337 27.7048 18.9896 27.7048 18.561C27.7048 18.1323 27.3558 17.7842 26.9255 17.7842C26.4952 17.7842 26.1463 18.1324 26.1463 18.561C26.1462 18.8208 26.2749 19.0501 26.4716 19.1909L25.2392 21.1178C25.5015 21.2564 25.6802 21.5307 25.6802 21.847C25.6802 22.3026 25.3097 22.6723 24.8523 22.6723C24.3949 22.6723 24.0244 22.3026 24.0244 21.847C24.0244 21.4324 24.331 21.0894 24.7306 21.0308L23.8852 19.0554C24.2568 18.9687 24.5337 18.6365 24.5337 18.2399C24.5337 17.7773 24.1573 17.4026 23.6929 17.4026C23.2285 17.4026 22.852 17.7773 22.852 18.2399C22.852 18.5984 23.0785 18.9041 23.3964 19.0236L22.313 20.8642C22.6687 20.9737 22.9273 21.303 22.9273 21.6933C22.9273 22.1729 22.5368 22.5617 22.0553 22.5617C21.5738 22.5617 21.184 22.1729 21.184 21.6932C21.184 21.326 21.4128 21.0124 21.736 20.8854L20.6625 19.0266C20.9845 18.9092 21.2145 18.6013 21.2145 18.2399C21.2145 17.7773 20.838 17.4025 20.3736 17.4025L20.3735 17.4026ZM18.1635 25.2881C17.5801 25.3793 17.6073 26.2535 18.2653 26.2535H18.4273L18.4288 26.2619H25.5883L25.5898 26.2535H25.7754C26.4087 26.2535 26.4536 25.383 25.8803 25.2882H18.1634L18.1635 25.2881Z" fill="white"/>
</svg>
