<svg width="53" height="55" viewBox="0 0 53 55" fill="none" xmlns="http://www.w3.org/2000/svg">
<path d="M5.14984e-05 5.85666L8.97055 11.0358L8.97055 0.67754L5.14984e-05 5.85666ZM24.5194 4.95961L7.47547 4.95961V6.75371L24.5194 6.75371V4.95961Z" fill="white"/>
<path d="M35.2838 5.9508L26.3332 0.737275L26.2934 11.0954L35.2838 5.9508ZM10.7611 6.7537L27.805 6.81914L27.8118 5.02505L10.768 4.95962L10.7611 6.7537Z" fill="white"/>
<rect x="1.19607" y="20.1469" width="32.8918" height="32.8918" rx="4.18623" stroke="white" stroke-width="2.39213"/>
<path d="M43.0584 54.2348L48.2375 45.2643H37.8793L43.0584 54.2348ZM42.1614 29.7154V46.7594H43.9555V29.7154H42.1614Z" fill="white"/>
<path d="M43.1525 18.951L37.939 27.9016L48.2972 27.9413L43.1525 18.951ZM43.9555 43.4736L44.0209 26.4298L42.2268 26.4229L42.1614 43.4667L43.9555 43.4736Z" fill="white"/>
</svg>
