<svg width="50" height="50" viewBox="0 0 50 50" fill="none" xmlns="http://www.w3.org/2000/svg">
<path d="M39.9577 0.0853259C38.5399 0.356372 37.4349 0.961012 36.2882 2.10774C34.8704 3.50467 33.8279 5.40199 33.3275 7.52866L33.1607 8.2167L27.9066 8.23755L22.6316 8.2584L21.8602 8.50859C20.2339 9.07153 20.6092 8.71709 10.4346 18.8917L1.03137 28.2741L0.635221 29.0872C-0.303013 31.0054 -0.198765 33.2154 0.927117 34.9668C1.19816 35.4047 3.09548 37.3645 7.49476 41.7638C12.6863 46.9554 13.7914 47.9979 14.3543 48.3315C16.1682 49.3739 18.1906 49.4573 20.088 48.54L20.9011 48.1438L30.2834 38.7406C37.3306 31.6934 39.7492 29.2123 39.9994 28.7953C40.1662 28.4826 40.4581 27.8571 40.6249 27.3984C40.9168 26.5853 40.9376 26.481 40.9793 24.5211L41.021 22.4987L41.6674 22.4362C43.6898 22.2485 45.6913 20.8933 47.0883 18.8083C49.6319 14.9303 49.9447 9.17578 47.7972 4.88075C46.9632 3.21278 45.5871 1.6282 44.2527 0.856764C42.96 0.147875 41.3129 -0.16487 39.9577 0.0853259ZM42.5014 2.25369C44.6697 3.08768 46.3585 5.52709 47.0049 8.80049C47.2342 9.96807 47.2342 12.616 47.0049 13.721C46.3377 16.8693 44.9199 19.0585 42.9809 20.0385C42.3346 20.3512 41.2504 20.6222 41.0627 20.518C41.021 20.4972 40.9793 18.6832 40.9793 16.494C40.9793 13.1164 40.9585 12.4492 40.8334 11.9905C40.5623 11.0731 40.1245 10.3434 39.4573 9.69702C38.4774 8.73794 37.3306 8.2584 36.0171 8.2584C35.6418 8.2584 35.3082 8.2167 35.2665 8.175C35.204 8.0499 35.7461 6.50702 36.1422 5.73559C37.1013 3.83827 38.4148 2.58729 39.9994 2.12859C40.6249 1.9201 41.8342 2.0035 42.5014 2.25369ZM32.8897 11.3024V12.4492L32.4727 12.6577C31.9514 12.9079 31.3051 13.5959 31.034 14.1797C30.763 14.8052 30.763 15.9102 31.034 16.5357C31.5344 17.6407 32.5978 18.3705 33.7445 18.3705C34.8704 18.3705 35.6418 18.016 36.3298 17.1195C36.8928 16.3898 37.0387 15.3056 36.7051 14.3465C36.4966 13.721 35.8295 12.9496 35.2457 12.6785L34.8078 12.47V11.8445C34.8078 11.4901 34.8287 10.9689 34.8704 10.677L34.9329 10.1557L35.7669 10.1974C37.2055 10.2808 38.1229 10.8438 38.665 11.9905L38.9778 12.6368V19.2879C38.9778 26.6061 38.9986 26.3142 38.3731 27.5652C38.0604 28.1907 37.3723 28.8996 28.8865 37.4062C18.8787 47.4141 19.4208 46.9345 18.0447 47.1639C17.2524 47.289 16.3559 47.1639 15.6053 46.7886C15.1049 46.5384 14.2292 45.7044 8.80829 40.2626C3.01208 34.4664 2.57424 33.9869 2.32404 33.4239C1.8028 32.2147 1.9279 30.7343 2.63679 29.6502C2.80359 29.4 6.99437 25.1675 11.9566 20.2053L20.9845 11.1773L21.7976 10.7812C22.2563 10.5519 22.861 10.3434 23.1529 10.3017C23.4448 10.26 25.7591 10.2183 28.2819 10.1974H32.8688L32.8897 11.3024ZM34.3283 14.4507C34.641 14.6175 34.9121 15.0345 34.9121 15.3681C34.9121 15.7017 34.641 16.1187 34.3283 16.2855C34.1823 16.3689 33.953 16.4315 33.8487 16.4315C33.2441 16.4315 32.7229 15.806 32.8271 15.2013C32.9522 14.4507 33.6611 14.0963 34.3283 14.4507Z" fill="white"/>
</svg>
