<svg width="134" height="32" viewBox="0 0 134 32" fill="none" xmlns="http://www.w3.org/2000/svg">
<path d="M5.0814 4.45163L2.64089 7.55442L0.50238 16.9058L3.41969 25.2022L9.35075 29.6082L14.2088 30.8667L18.7148 30.7737L21.3538 29.9179L23.46 28.7947L27.9992 24.3087L30.8566 17.7602L30.8462 13.4684L27.7997 6.05031L24.3968 2.84536L17.1026 0.622551L10.3199 1.24135L5.0814 4.45163Z" fill="#FFE3B5"/>
<path d="M30.1224 19.5467L30.3325 19.7568H30.4375L31.1705 17.4656L31.1488 15.3262L30.6554 14.49C30.4222 16.2957 29.7324 21.593 28.3365 22.9083L28.2315 22.6982L28.1264 22.8032C28.5042 23.7165 26.9384 24.2456 27.286 25.1143L26.0255 25.3244L25.6053 25.8496V25.9547L25.9204 25.8496L25.6053 26.1647L25.8154 26.3749L25.2901 26.69L25.5002 26.2698L25.08 26.3749C25.0727 26.7627 24.9276 26.847 24.5548 26.9001L24.4497 27.7405L22.769 28.0556H22.6639C22.5821 28.3312 22.5329 28.4542 22.2437 28.3708H22.1387L21.6134 29.0011L19.8276 29.7364L19.3024 29.5263V29.8414C18.7287 29.8374 18.314 30.0716 18.0418 30.5768L17.7267 30.4717V30.2616L18.0418 30.1566H15.8358L11.7389 29.7322L9.84806 29.3162C9.58464 28.545 7.27717 27.4789 6.48652 27.4253C6.32537 26.4265 4.67743 25.4555 4.07041 24.589L3.86031 24.6941L1.23411 18.8114L1.44421 18.9164C0.721433 13.5796 2.01841 8.08293 6.0887 4.22931C6.43044 3.90575 6.9448 3.9134 7.3269 3.62844C11.7571 0.324595 17.94 0.155102 22.769 2.77145C26.1175 4.58566 28.4933 7.20843 29.7647 10.8277C30.332 12.4429 30.4917 14.4045 31.1074 16.0027C31.5081 15.0479 30.9812 13.084 30.7935 12.0883C30.0598 8.19848 27.0129 3.20685 23.0882 1.8128C20.3579 0.842988 17.6562 -0.118414 14.6803 0.011909C9.82474 0.224548 5.20721 2.9588 2.60541 7.04599C2.03178 7.9471 1.78875 8.90976 1.37953 9.88229C1.02105 10.7342 0.489235 11.7112 0.306998 12.614C-0.927148 18.7278 1.61701 25.4853 6.90671 28.9097C10.0196 30.9248 13.8864 31.6909 17.5344 31.2732C21.9776 30.7646 26.1365 27.9174 28.4861 24.1687C29.3196 22.839 30.3128 21.1593 30.1224 19.5467ZM27.286 24.0638C26.9951 24.7911 26.8594 24.7415 27.286 24.0638ZM26.2356 25.4294L26.1305 25.7446H26.0255L26.2356 25.4294Z" fill="#4C2121"/>
<path d="M15.3688 0.298775H15.2568V31.0028H15.3688V0.298775Z" fill="#4C2121" stroke="#4C2121" stroke-width="0.421918"/>
<path d="M0.522095 14.7498V14.8623L30.9889 14.8623V14.7498L0.522095 14.7498Z" fill="#4C2121" stroke="#4C2121" stroke-width="0.421522"/>
<path d="M5.61441 4.25894L5.53149 4.33505L26.1344 26.7794L26.2173 26.7033L5.61441 4.25894Z" fill="#4C2121" stroke="#4C2121" stroke-width="0.421522"/>
<path d="M25.3421 3.78352L25.425 3.85963L4.82208 26.304L4.73916 26.2279L25.3421 3.78352Z" fill="#4C2121" stroke="#4C2121" stroke-width="0.421522"/>
<path d="M15.3032 19.9113C18.0381 19.9113 20.2552 17.6941 20.2552 14.9592C20.2552 12.2242 18.0381 10.0071 15.3032 10.0071C12.5682 10.0071 10.3511 12.2242 10.3511 14.9592C10.3511 17.6941 12.5682 19.9113 15.3032 19.9113Z" fill="#C3642E"/>
<path d="M14.4374 12.3585C14.1886 12.3585 13.9869 12.5601 13.9869 12.8089C13.9869 13.0185 14.1301 13.1944 14.3238 13.2448L13.8631 14.3128C14.07 14.3504 14.2268 14.5316 14.2268 14.7495C14.2268 14.9946 14.0283 15.1935 13.7832 15.1935C13.5382 15.1935 13.3396 14.9946 13.3396 14.7495C13.3396 14.5752 13.44 14.4246 13.5861 14.3519L12.9237 13.3193C13.0281 13.2435 13.096 13.1207 13.096 12.9817C13.096 12.751 12.9095 12.5638 12.6789 12.5638C12.4484 12.5638 12.2614 12.7511 12.2614 12.9817C12.2614 13.2123 12.4484 13.3992 12.6789 13.3992C12.6885 13.3992 12.698 13.399 12.7074 13.3984L13.2537 16.3572H17.3726L17.9192 13.3984C17.9286 13.399 17.9382 13.3992 17.9478 13.3992C18.1783 13.3992 18.3653 13.2123 18.3653 12.9817C18.3653 12.751 18.1783 12.5638 17.9478 12.5638C17.7172 12.5638 17.5303 12.7511 17.5303 12.9817C17.5302 13.1214 17.5992 13.2448 17.7046 13.3206L17.0443 14.3572C17.1848 14.4318 17.2806 14.5794 17.2806 14.7495C17.2806 14.9946 17.082 15.1935 16.837 15.1935C16.5919 15.1935 16.3934 14.9946 16.3934 14.7495C16.3934 14.5265 16.5577 14.3419 16.7718 14.3104L16.3188 13.2477C16.5179 13.201 16.6663 13.0223 16.6663 12.8089C16.6663 12.5601 16.4646 12.3585 16.2158 12.3585C15.967 12.3585 15.7653 12.5601 15.7653 12.8089C15.7653 13.0018 15.8866 13.1663 16.0569 13.2306L15.4765 14.2208C15.6671 14.2797 15.8056 14.4569 15.8056 14.6668C15.8056 14.9248 15.5964 15.134 15.3384 15.134C15.0805 15.134 14.8716 14.9248 14.8716 14.6668C14.8716 14.4692 14.9942 14.3005 15.1673 14.2322L14.5922 13.2322C14.7647 13.169 14.8879 13.0034 14.8879 12.8089C14.8879 12.5601 14.6862 12.3585 14.4374 12.3585L14.4374 12.3585ZM13.2533 16.6008C12.9408 16.6499 12.9553 17.1202 13.3079 17.1202H13.3946L13.3955 17.1247H17.2313L17.2321 17.1202H17.3315C17.6709 17.1202 17.6949 16.6519 17.3877 16.6008H13.2533L13.2533 16.6008Z" fill="white"/>
<path d="M4.65925 17.635L4.09649 16.9022L3.63269 16.2684L4.54871 16.1474L5.32956 16.0627L4.97629 16.9165L4.65925 17.635Z" fill="#C3642E"/>
<path d="M7.86188 20.0484L7.82252 19.1253L7.80727 18.34L8.62641 18.7675L9.31411 19.1469L8.53433 19.6426L7.86188 20.0484Z" fill="#C3642E"/>
<path d="M4.61385 22.8092L4.4036 21.9095L4.24265 21.1407L5.12697 21.4085L5.87321 21.6535L5.19915 22.2855L4.61385 22.8092Z" fill="#C3642E"/>
<path d="M12.3649 27.0212L13.1529 27.5038L13.813 27.9294L13.0011 28.3705L12.3024 28.7293L12.3264 27.8057L12.3649 27.0212Z" fill="#C3642E"/>
<path d="M10.6439 26.2581L10.3621 25.0523L10.1464 24.022L11.3315 24.3809L12.3316 24.7092L11.4283 25.5562L10.6439 26.2581Z" fill="#C3642E"/>
<path d="M16.5649 23.624L16.3546 22.7242L16.1937 21.9555L17.078 22.2232L17.8243 22.4682L17.1502 23.1002L16.5649 23.624Z" fill="#C3642E"/>
<path d="M16.4843 26.5299L17.3043 26.1041L18.0095 25.7584L17.9683 26.6815L17.915 27.4651L17.1363 26.9679L16.4843 26.5299Z" fill="#C3642E"/>
<path d="M21.7196 26.8176L21.5093 25.9179L21.3484 25.1491L22.2327 25.4169L22.9789 25.6619L22.3049 26.2939L21.7196 26.8176Z" fill="#C3642E"/>
<path d="M22.6161 18.4412L22.4058 17.5415L22.2448 16.7728L23.1292 17.0405L23.8754 17.2855L23.2013 17.9175L22.6161 18.4412Z" fill="#C3642E"/>
<path d="M23.0811 21.8366L23.3493 20.9525L23.5947 20.2064L24.2263 20.8807L24.7498 21.4663L23.8499 21.6761L23.0811 21.8366Z" fill="#C3642E"/>
<path d="M26.3963 21.3287L26.8771 20.5397L27.3013 19.8786L27.7442 20.6895L28.1046 21.3874L27.1809 21.3655L26.3963 21.3287Z" fill="#C3642E"/>
<path d="M24.1074 6.90363L24.8937 6.41836L25.5714 6.02147L25.5986 6.94504L25.6034 7.73046L24.79 7.29215L24.1074 6.90363Z" fill="#C3642E"/>
<path d="M23.4463 12.2189L24.2326 11.7336L24.9104 11.3367L24.9375 12.2603L24.9423 13.0457L24.1289 12.6074L23.4463 12.2189Z" fill="#C3642E"/>
<path d="M26.2593 12.3774L27.6106 11.5434L28.7755 10.8613L28.8221 12.4486L28.8304 13.7985L27.4324 13.0452L26.2593 12.3774Z" fill="#C3642E"/>
<path d="M16.4437 6.19203L17.6773 6.33727L18.7285 6.43639L18.2375 5.29547L17.7977 4.33557L17.0552 5.33124L16.4437 6.19203Z" fill="#C3642E"/>
<path d="M16.9489 8.79594L17.7352 9.28121L18.4129 9.6781L18.4401 8.75453L18.4449 7.96911L17.6315 8.40742L16.9489 8.79594Z" fill="#C3642E"/>
<path d="M19.9599 4.21589L20.7462 3.73062L21.4239 3.33373L21.451 4.25731L21.4559 5.04272L20.6425 4.60441L19.9599 4.21589Z" fill="#C3642E"/>
<path d="M8.78739 5.08751L9.57367 4.60224L10.2514 4.20535L10.2786 5.12893L10.2834 5.91434L9.46999 5.47603L8.78739 5.08751Z" fill="#C3642E"/>
<path d="M12.596 3.14684L13.318 2.57018L13.9429 2.09436L14.0813 3.00791L14.1809 3.78699L13.3205 3.4501L12.596 3.14684Z" fill="#C3642E"/>
<path d="M4.06801 9.06939L4.78995 8.49274L5.41484 8.01691L5.55327 8.93046L5.65289 9.70954L4.79253 9.37265L4.06801 9.06939Z" fill="#C3642E"/>
<path d="M6.99977 12.5558L7.72171 11.9792L8.3466 11.5034L8.48503 12.4169L8.58466 13.196L7.72429 12.8591L6.99977 12.5558Z" fill="#C3642E"/>
<path d="M4.62264 13.6967C5.27903 13.6967 5.81114 13.1646 5.81114 12.5082C5.81114 11.8517 5.27903 11.3196 4.62264 11.3196C3.96625 11.3196 3.43414 11.8517 3.43414 12.5082C3.43414 13.1646 3.96625 13.6967 4.62264 13.6967Z" fill="#FFBB56"/>
<path d="M12.9884 6.86051C13.6448 6.86051 14.1769 6.32838 14.1769 5.67195C14.1769 5.01553 13.6448 4.48339 12.9884 4.48339C12.332 4.48339 11.7999 5.01553 11.7999 5.67195C11.7999 6.32838 12.332 6.86051 12.9884 6.86051Z" fill="#FFBB56"/>
<path d="M11.8729 9.4179C12.2011 9.4179 12.4672 9.15183 12.4672 8.82362C12.4672 8.49541 12.2011 8.22934 11.8729 8.22934C11.5447 8.22934 11.2787 8.49541 11.2787 8.82362C11.2787 9.15183 11.5447 9.4179 11.8729 9.4179Z" fill="#FFBB56"/>
<path d="M16.6271 3.31662C16.9553 3.31662 17.2214 3.05055 17.2214 2.72234C17.2214 2.39413 16.9553 2.12806 16.6271 2.12806C16.299 2.12806 16.0329 2.39413 16.0329 2.72234C16.0329 3.05055 16.299 3.31662 16.6271 3.31662Z" fill="#FFBB56"/>
<path d="M19.9551 6.60496C20.2833 6.60496 20.5493 6.33889 20.5493 6.01068C20.5493 5.68247 20.2833 5.4164 19.9551 5.4164C19.6269 5.4164 19.3608 5.68247 19.3608 6.01068C19.3608 6.33889 19.6269 6.60496 19.9551 6.60496Z" fill="#FFBB56"/>
<path d="M26.7299 10.2499C27.0581 10.2499 27.3242 9.98384 27.3242 9.65563C27.3242 9.32742 27.0581 9.06135 26.7299 9.06135C26.4017 9.06135 26.1357 9.32742 26.1357 9.65563C26.1357 9.98384 26.4017 10.2499 26.7299 10.2499Z" fill="#FFBB56"/>
<path d="M22.3719 13.776C22.7001 13.776 22.9661 13.5099 22.9661 13.1817C22.9661 12.8535 22.7001 12.5874 22.3719 12.5874C22.0437 12.5874 21.7776 12.8535 21.7776 13.1817C21.7776 13.5099 22.0437 13.776 22.3719 13.776Z" fill="#FFBB56"/>
<path d="M7.15828 8.82362C7.48647 8.82362 7.75253 8.55756 7.75253 8.22934C7.75253 7.90113 7.48647 7.63506 7.15828 7.63506C6.83008 7.63506 6.56403 7.90113 6.56403 8.22934C6.56403 8.55756 6.83008 8.82362 7.15828 8.82362Z" fill="#FFBB56"/>
<path d="M8.50532 16.8266C8.83352 16.8266 9.09957 16.5605 9.09957 16.2323C9.09957 15.9041 8.83352 15.638 8.50532 15.638C8.17713 15.638 7.91107 15.9041 7.91107 16.2323C7.91107 16.5605 8.17713 16.8266 8.50532 16.8266Z" fill="#FFBB56"/>
<path d="M5.89051 20.5507C6.21871 20.5507 6.48477 20.2847 6.48477 19.9565C6.48477 19.6283 6.21871 19.3622 5.89051 19.3622C5.56232 19.3622 5.29626 19.6283 5.29626 19.9565C5.29626 20.2847 5.56232 20.5507 5.89051 20.5507Z" fill="#FFBB56"/>
<path d="M9.06001 24.3541C9.3882 24.3541 9.65426 24.0881 9.65426 23.7599C9.65426 23.4316 9.3882 23.1656 9.06001 23.1656C8.73181 23.1656 8.46576 23.4316 8.46576 23.7599C8.46576 24.0881 8.73181 24.3541 9.06001 24.3541Z" fill="#FFBB56"/>
<path d="M8.50532 27.0086C8.83352 27.0086 9.09957 26.7425 9.09957 26.4143C9.09957 26.0861 8.83352 25.82 8.50532 25.82C8.17713 25.82 7.91107 26.0861 7.91107 26.4143C7.91107 26.7425 8.17713 27.0086 8.50532 27.0086Z" fill="#FFBB56"/>
<path d="M13.1407 26.5728C13.4689 26.5728 13.7349 26.3067 13.7349 25.9785C13.7349 25.6503 13.4689 25.3842 13.1407 25.3842C12.8125 25.3842 12.5464 25.6503 12.5464 25.9785C12.5464 26.3067 12.8125 26.5728 13.1407 26.5728Z" fill="#FFBB56"/>
<path d="M17.0629 29.0292C17.3911 29.0292 17.6572 28.7631 17.6572 28.4349C17.6572 28.1067 17.3911 27.8406 17.0629 27.8406C16.7347 27.8406 16.4687 28.1067 16.4687 28.4349C16.4687 28.7631 16.7347 29.0292 17.0629 29.0292Z" fill="#FFBB56"/>
<path d="M19.757 27.6821C20.0852 27.6821 20.3513 27.4161 20.3513 27.0878C20.3513 26.7596 20.0852 26.4936 19.757 26.4936C19.4288 26.4936 19.1628 26.7596 19.1628 27.0878C19.1628 27.4161 19.4288 27.6821 19.757 27.6821Z" fill="#FFBB56"/>
<path d="M18.2515 21.5808C18.5797 21.5808 18.8458 21.3148 18.8458 20.9866C18.8458 20.6583 18.5797 20.3923 18.2515 20.3923C17.9233 20.3923 17.6573 20.6583 17.6573 20.9866C17.6573 21.3148 17.9233 21.5808 18.2515 21.5808Z" fill="#FFBB56"/>
<path d="M21.2111 19.4059C21.5393 19.4059 21.8053 19.1399 21.8053 18.8116C21.8053 18.4834 21.5393 18.2174 21.2111 18.2174C20.8829 18.2174 20.6168 18.4834 20.6168 18.8116C20.6168 19.1399 20.8829 19.4059 21.2111 19.4059Z" fill="#FFBB56"/>
<path d="M25.9736 24.3925C26.3018 24.3925 26.5678 24.1265 26.5678 23.7983C26.5678 23.47 26.3018 23.204 25.9736 23.204C25.6454 23.204 25.3793 23.47 25.3793 23.7983C25.3793 24.1265 25.6454 24.3925 25.9736 24.3925Z" fill="#FFBB56"/>
<path d="M19.9785 24.3145C20.6349 24.3145 21.167 23.7823 21.167 23.1259C21.167 22.4695 20.6349 21.9373 19.9785 21.9373C19.3221 21.9373 18.79 22.4695 18.79 23.1259C18.79 23.7823 19.3221 24.3145 19.9785 24.3145Z" fill="#FFBB56"/>
<path d="M11.7982 23.1378C12.4546 23.1378 12.9867 22.6057 12.9867 21.9493C12.9867 21.2929 12.4546 20.7607 11.7982 20.7607C11.1418 20.7607 10.6097 21.2929 10.6097 21.9493C10.6097 22.6057 11.1418 23.1378 11.7982 23.1378Z" fill="#FFBB56"/>
<path d="M23.3963 10.6433C24.0527 10.6433 24.5848 10.1112 24.5848 9.45476C24.5848 8.79833 24.0527 8.2662 23.3963 8.2662C22.7399 8.2662 22.2078 8.79833 22.2078 9.45476C22.2078 10.1112 22.7399 10.6433 23.3963 10.6433Z" fill="#FFBB56"/>
<path d="M25.4694 19.3839C26.1258 19.3839 26.6579 18.8517 26.6579 18.1953C26.6579 17.5389 26.1258 17.0068 25.4694 17.0068C24.813 17.0068 24.2809 17.5389 24.2809 18.1953C24.2809 18.8517 24.813 19.3839 25.4694 19.3839Z" fill="#FFBB56"/>
<path d="M37.7101 17.9117V16.0037H43.0381C43.6741 16.0037 44.1781 15.8357 44.5501 15.4997C44.9221 15.1517 45.1081 14.6717 45.1081 14.0597C45.1081 13.4237 44.9221 12.9377 44.5501 12.6017C44.1781 12.2657 43.6741 12.0977 43.0381 12.0977H37.9981V21.6917H35.6041V10.0457H42.8221C43.4701 10.0457 44.0761 10.1237 44.6401 10.2797C45.2161 10.4357 45.7141 10.6757 46.1341 10.9997C46.5661 11.3237 46.9021 11.7377 47.1421 12.2417C47.3821 12.7457 47.5021 13.3517 47.5021 14.0597C47.5021 14.7557 47.3821 15.3497 47.1421 15.8417C46.9021 16.3337 46.5661 16.7357 46.1341 17.0477C45.7141 17.3477 45.2161 17.5697 44.6401 17.7137C44.0761 17.8457 43.4701 17.9117 42.8221 17.9117H37.7101ZM52.1313 8.8217V10.8737H49.4133V8.8217H52.1313ZM49.5933 12.7457H51.9333V21.6917H49.5933V12.7457ZM63.2477 14.5277L56.1377 20.6117L55.8857 19.9277H63.3737V21.6917H54.2117V19.9277L61.3217 13.8437L61.5737 14.5277H54.2117V12.7457H63.2477V14.5277ZM74.445 14.5277L67.335 20.6117L67.083 19.9277H74.571V21.6917H65.409V19.9277L72.519 13.8437L72.771 14.5277H65.409V12.7457H74.445V14.5277ZM80.8932 21.8897C80.0052 21.8897 79.1952 21.6977 78.4632 21.3137C77.7432 20.9177 77.1672 20.3717 76.7352 19.6757C76.3152 18.9677 76.1052 18.1517 76.1052 17.2277C76.1052 16.2797 76.3212 15.4577 76.7532 14.7617C77.1852 14.0657 77.7672 13.5257 78.4992 13.1417C79.2432 12.7457 80.0832 12.5477 81.0192 12.5477C82.0512 12.5477 82.8792 12.7577 83.5032 13.1777C84.1392 13.5857 84.6012 14.1437 84.8892 14.8517C85.1772 15.5597 85.3212 16.3517 85.3212 17.2277C85.3212 17.7557 85.2372 18.2957 85.0692 18.8477C84.9012 19.3877 84.6432 19.8917 84.2952 20.3597C83.9472 20.8157 83.4912 21.1877 82.9272 21.4757C82.3632 21.7517 81.6852 21.8897 80.8932 21.8897ZM81.6492 20.0897C82.3572 20.0897 82.9692 19.9697 83.4852 19.7297C84.0012 19.4897 84.3972 19.1537 84.6732 18.7217C84.9492 18.2897 85.0872 17.7917 85.0872 17.2277C85.0872 16.6157 84.9432 16.0997 84.6552 15.6797C84.3792 15.2477 83.9832 14.9237 83.4672 14.7077C82.9632 14.4797 82.3572 14.3657 81.6492 14.3657C80.6532 14.3657 79.8792 14.6297 79.3272 15.1577C78.7752 15.6737 78.4992 16.3637 78.4992 17.2277C78.4992 17.8037 78.6312 18.3077 78.8952 18.7397C79.1592 19.1597 79.5252 19.4897 79.9932 19.7297C80.4732 19.9697 81.0252 20.0897 81.6492 20.0897ZM85.0872 12.7457H87.4272V21.6917H85.2492C85.2492 21.6917 85.2312 21.5777 85.1952 21.3497C85.1712 21.1097 85.1472 20.8097 85.1232 20.4497C85.0992 20.0897 85.0872 19.7357 85.0872 19.3877V12.7457Z" fill="#C3642E"/>
<path d="M94.837 16.0217L94.819 15.0137L102.667 21.6917H99.211L92.227 15.5717L98.437 10.0457H101.839L94.837 16.0217ZM89.851 10.0457H92.245V21.6917H89.851V10.0457ZM106.887 8.8217V10.8737H104.169V8.8217H106.887ZM104.349 12.7457H106.689V21.6917H104.349V12.7457ZM109.022 12.7457H111.362V21.6917H109.022V12.7457ZM115.52 12.5477C116.072 12.5477 116.582 12.6197 117.05 12.7637C117.518 12.9077 117.926 13.1297 118.274 13.4297C118.622 13.7297 118.892 14.1137 119.084 14.5817C119.276 15.0377 119.372 15.5837 119.372 16.2197V21.6917H117.032V16.6337C117.032 15.8777 116.846 15.3257 116.474 14.9777C116.114 14.6177 115.52 14.4377 114.692 14.4377C114.068 14.4377 113.504 14.5577 113 14.7977C112.496 15.0377 112.088 15.3437 111.776 15.7157C111.464 16.0757 111.284 16.4537 111.236 16.8497L111.218 15.9317C111.278 15.5117 111.416 15.1037 111.632 14.7077C111.848 14.3117 112.136 13.9517 112.496 13.6277C112.868 13.2917 113.306 13.0277 113.81 12.8357C114.314 12.6437 114.884 12.5477 115.52 12.5477ZM125.966 20.3237C124.994 20.3237 124.136 20.1797 123.392 19.8917C122.66 19.5917 122.09 19.1537 121.682 18.5777C121.274 18.0017 121.07 17.3057 121.07 16.4897C121.07 15.6857 121.268 14.9897 121.664 14.4017C122.06 13.8137 122.624 13.3577 123.356 13.0337C124.1 12.7097 124.97 12.5477 125.966 12.5477C126.242 12.5477 126.506 12.5657 126.758 12.6017C127.022 12.6377 127.28 12.6857 127.532 12.7457L132.05 12.7637V14.5277C131.438 14.5397 130.814 14.4677 130.178 14.3117C129.554 14.1437 129.002 13.9637 128.522 13.7717L128.468 13.6457C128.876 13.8377 129.26 14.0777 129.62 14.3657C129.98 14.6417 130.268 14.9657 130.484 15.3377C130.712 15.6977 130.826 16.1177 130.826 16.5977C130.826 17.3777 130.628 18.0497 130.232 18.6137C129.836 19.1657 129.272 19.5917 128.54 19.8917C127.82 20.1797 126.962 20.3237 125.966 20.3237ZM128.972 25.3817V24.9497C128.972 24.3977 128.792 24.0137 128.432 23.7977C128.084 23.5817 127.604 23.4737 126.992 23.4737H124.202C123.662 23.4737 123.206 23.4317 122.834 23.3477C122.474 23.2637 122.186 23.1437 121.97 22.9877C121.754 22.8317 121.598 22.6457 121.502 22.4297C121.406 22.2257 121.358 22.0037 121.358 21.7637C121.358 21.2837 121.514 20.9237 121.826 20.6837C122.138 20.4317 122.558 20.2637 123.086 20.1797C123.614 20.0957 124.196 20.0777 124.832 20.1257L125.966 20.3237C125.21 20.3477 124.646 20.4137 124.274 20.5217C123.914 20.6177 123.734 20.8157 123.734 21.1157C123.734 21.2957 123.806 21.4397 123.95 21.5477C124.094 21.6437 124.298 21.6917 124.562 21.6917H127.496C128.3 21.6917 128.984 21.7757 129.548 21.9437C130.124 22.1237 130.562 22.4177 130.862 22.8257C131.162 23.2457 131.312 23.8157 131.312 24.5357V25.3817H128.972ZM125.966 18.6317C126.482 18.6317 126.932 18.5477 127.316 18.3797C127.712 18.2117 128.018 17.9717 128.234 17.6597C128.45 17.3357 128.558 16.9517 128.558 16.5077C128.558 16.0517 128.45 15.6617 128.234 15.3377C128.018 15.0137 127.718 14.7677 127.334 14.5997C126.95 14.4197 126.494 14.3297 125.966 14.3297C125.45 14.3297 124.994 14.4197 124.598 14.5997C124.202 14.7677 123.896 15.0137 123.68 15.3377C123.464 15.6617 123.356 16.0517 123.356 16.5077C123.356 16.9517 123.464 17.3357 123.68 17.6597C123.896 17.9717 124.196 18.2117 124.58 18.3797C124.976 18.5477 125.438 18.6317 125.966 18.6317Z" fill="white"/>
</svg>
