<svg width="61" height="61" viewBox="0 0 61 61" fill="none" xmlns="http://www.w3.org/2000/svg">
<path d="M49.2289 0.62139C47.4999 0.951933 46.1523 1.6893 44.7538 3.08775C43.0248 4.79132 41.7535 7.10513 41.1433 9.69862L40.9399 10.5377L34.5324 10.5631L28.0995 10.5885L27.1588 10.8937C25.1755 11.5802 25.6332 11.1479 13.2251 23.556L1.75776 34.9979L1.27466 35.9895C0.130471 38.3288 0.257603 41.024 1.63063 43.1598C1.96117 43.6938 4.27498 46.0838 9.63995 51.4488C15.9711 57.78 17.3187 59.0513 18.0052 59.4581C20.2173 60.7295 22.6837 60.8312 24.9975 59.7124L25.9891 59.2293L37.431 47.762C46.0252 39.1679 48.9746 36.1421 49.2797 35.6336C49.4832 35.2522 49.8391 34.4894 50.0425 33.93C50.3985 32.9384 50.4239 32.8112 50.4748 30.4212L50.5256 27.9548L51.3139 27.8785C53.7802 27.6497 56.2212 25.997 57.9247 23.4543C61.0267 18.725 61.4081 11.7073 58.7892 6.46947C57.7722 4.43535 56.094 2.50295 54.4667 1.56217C52.8903 0.697669 50.8816 0.316273 49.2289 0.62139ZM52.3309 3.26574C54.9753 4.28279 57.0348 7.25769 57.823 11.2496C58.1027 12.6735 58.1027 15.9027 57.823 17.2503C57.0094 21.0897 55.2804 23.7594 52.9157 24.9545C52.1275 25.3359 50.8053 25.6664 50.5765 25.5393C50.5256 25.5139 50.4748 23.3018 50.4748 20.632C50.4748 16.5129 50.4494 15.6993 50.2968 15.1399C49.9663 14.0211 49.4323 13.1312 48.6187 12.343C47.4236 11.1734 46.0252 10.5885 44.4233 10.5885C43.9656 10.5885 43.5588 10.5377 43.5079 10.4868C43.4317 10.3343 44.0928 8.45273 44.5759 7.51195C45.7455 5.19815 47.3473 3.67256 49.2797 3.11318C50.0425 2.85892 51.5173 2.96062 52.3309 3.26574ZM40.6093 14.3008V15.6993L40.1008 15.9535C39.4651 16.2586 38.6769 17.0977 38.3464 17.8097C38.0158 18.5724 38.0158 19.92 38.3464 20.6828C38.9566 22.0304 40.2534 22.9204 41.6518 22.9204C43.0248 22.9204 43.9656 22.4881 44.8047 21.3948C45.4912 20.5049 45.6692 19.1827 45.2624 18.0131C45.0081 17.2503 44.1945 16.3095 43.4825 15.979L42.9486 15.7247V14.9619C42.9486 14.5296 42.974 13.894 43.0248 13.538L43.1011 12.9024L44.1182 12.9532C45.8726 13.0549 46.9914 13.7414 47.6525 15.1399L48.0338 15.9281V24.0391C48.0338 32.9638 48.0593 32.6078 47.2965 34.1334C46.9151 34.8962 46.076 35.7607 35.7275 46.1347C23.5228 58.3394 24.1839 57.7546 22.5057 58.0343C21.5395 58.1868 20.4462 58.0343 19.5308 57.5766C18.9206 57.2715 17.8527 56.2544 11.2418 49.6181C4.17327 42.5496 3.63932 41.9648 3.3342 41.2782C2.69854 39.8035 2.8511 37.9982 3.7156 36.6761C3.91901 36.3709 9.02972 31.2094 15.0812 25.1579L26.0908 14.1482L27.0825 13.6651C27.6419 13.3855 28.3792 13.1312 28.7352 13.0803C29.0912 13.0295 31.9135 12.9786 34.9901 12.9532H40.5839L40.6093 14.3008ZM42.3638 18.1402C42.7452 18.3436 43.0757 18.8521 43.0757 19.259C43.0757 19.6658 42.7452 20.1743 42.3638 20.3777C42.1858 20.4794 41.9061 20.5557 41.7789 20.5557C41.0416 20.5557 40.4059 19.7929 40.5331 19.0555C40.6856 18.1402 41.5501 17.7079 42.3638 18.1402Z" fill="#FFBB56"/>
</svg>
